<svg width="24" height="24" viewBox="0 0 24 24" fill="none" xmlns="http://www.w3.org/2000/svg">
<path d="M7.19984 20.16H6.23984L6.81584 19.392C7.19984 18.864 7.43984 18.192 7.58384 17.376C5.18384 16.272 3.83984 14.208 3.83984 11.52C3.83984 7.39205 6.95984 4.80005 11.9998 4.80005C17.0398 4.80005 20.1598 7.39205 20.1598 11.52C20.1598 15.744 17.0878 18.24 11.9998 18.24H11.6638C10.8958 19.152 9.55184 20.16 7.19984 20.16ZM11.9998 5.76005C7.48784 5.76005 4.79984 7.92005 4.79984 11.52C4.79984 14.592 6.67184 16.032 8.25584 16.656L8.59184 16.8L8.54384 17.184C8.44784 17.952 8.30384 18.624 8.01584 19.2C9.59984 19.008 10.5118 18.192 11.0398 17.52L11.1838 17.328H11.9998C18.4798 17.328 19.1998 13.296 19.1998 11.568C19.1998 7.92005 16.5118 5.76005 11.9998 5.76005Z" fill="#A4B2BB"/>
</svg>
