<svg width="24" height="24" viewBox="0 0 24 24" fill="none" xmlns="http://www.w3.org/2000/svg">
<path d="M11.9996 17.28C6.47956 17.28 3.98356 12.432 3.88756 12.192C3.83956 12.048 3.83956 11.904 3.88756 11.76C3.98356 11.568 6.47956 6.71997 11.9996 6.71997C17.5196 6.71997 20.0156 11.568 20.1116 11.808C20.1596 11.952 20.1596 12.096 20.1116 12.24C20.0156 12.432 17.5196 17.28 11.9996 17.28ZM4.84756 12C5.37556 12.912 7.67956 16.32 11.9996 16.32C16.3196 16.32 18.5756 12.912 19.1516 12C18.6236 11.088 16.3196 7.67997 11.9996 7.67997C7.67956 7.67997 5.42356 11.088 4.84756 12Z" fill="#A4B2BB"/>
<path d="M11.9997 16.3201C9.59969 16.3201 7.67969 14.4001 7.67969 12.0001C7.67969 9.60005 9.59969 7.68005 11.9997 7.68005C14.3997 7.68005 16.3197 9.60005 16.3197 12.0001C16.3197 14.4001 14.3997 16.3201 11.9997 16.3201ZM11.9997 8.64005C10.1277 8.64005 8.63969 10.1281 8.63969 12.0001C8.63969 13.8721 10.1277 15.3601 11.9997 15.3601C13.8717 15.3601 15.3597 13.8721 15.3597 12.0001C15.3597 10.1281 13.8717 8.64005 11.9997 8.64005Z" fill="#A4B2BB"/>
<path d="M11.9996 14.4001C10.6556 14.4001 9.59961 13.3441 9.59961 12.0001C9.59961 11.7121 9.79161 11.5201 10.0796 11.5201C10.3676 11.5201 10.5596 11.7121 10.5596 12.0001C10.5596 12.8161 11.1836 13.4401 11.9996 13.4401C12.8156 13.4401 13.4396 12.8161 13.4396 12.0001C13.4396 11.1841 12.8156 10.5601 11.9996 10.5601C11.7116 10.5601 11.5196 10.3681 11.5196 10.0801C11.5196 9.7921 11.7116 9.6001 11.9996 9.6001C13.3436 9.6001 14.3996 10.6561 14.3996 12.0001C14.3996 13.3441 13.3436 14.4001 11.9996 14.4001Z" fill="#A4B2BB"/>
</svg>
