<svg width="24" height="24" viewBox="0 0 24 24" fill="none" xmlns="http://www.w3.org/2000/svg">
<path d="M18.3778 5.94238L19.0565 6.62158L11.8613 13.8168L11.1826 13.1381L18.3778 5.94238Z" fill="#6FCF97"/>
<path d="M20.1994 9.60005H19.2394V5.76005H15.3994V4.80005H20.1994V9.60005Z" fill="#6FCF97"/>
<path d="M16.7998 19.24H7.19977C6.38377 19.24 5.75977 18.616 5.75977 17.8V8.20001C5.75977 7.38401 6.38377 6.76001 7.19977 6.76001H12.4798V7.72001H7.19977C6.91177 7.72001 6.71977 7.91201 6.71977 8.20001V17.8C6.71977 18.088 6.91177 18.28 7.19977 18.28H16.7998C17.0878 18.28 17.2798 18.088 17.2798 17.8V12.52H18.2398V17.8C18.2398 18.616 17.6158 19.24 16.7998 19.24Z" fill="#6FCF97"/>
</svg>
