<svg width="24" height="24" viewBox="0 0 24 24" fill="none" xmlns="http://www.w3.org/2000/svg">
<path d="M18.7198 18.24H5.27984C4.46384 18.24 3.83984 17.616 3.83984 16.8V7.20001C3.83984 6.38401 4.46384 5.76001 5.27984 5.76001H18.7198C19.5358 5.76001 20.1598 6.38401 20.1598 7.20001V16.8C20.1598 17.616 19.5358 18.24 18.7198 18.24ZM5.27984 6.72001C4.99184 6.72001 4.79984 6.91201 4.79984 7.20001V16.8C4.79984 17.088 4.99184 17.28 5.27984 17.28H18.7198C19.0078 17.28 19.1998 17.088 19.1998 16.8V7.20001C19.1998 6.91201 19.0078 6.72001 18.7198 6.72001H5.27984Z" fill="#6FCF97"/>
<path d="M14.3995 11.5199C13.3435 11.5199 12.4795 10.6559 12.4795 9.59993C12.4795 8.54393 13.3435 7.67993 14.3995 7.67993C15.4555 7.67993 16.3195 8.54393 16.3195 9.59993C16.3195 10.6559 15.4555 11.5199 14.3995 11.5199ZM14.3995 8.63993C13.8715 8.63993 13.4395 9.07193 13.4395 9.59993C13.4395 10.1279 13.8715 10.5599 14.3995 10.5599C14.9275 10.5599 15.3595 10.1279 15.3595 9.59993C15.3595 9.07193 14.9275 8.63993 14.3995 8.63993Z" fill="#6FCF97"/>
<path d="M16.9444 18.096L9.12037 10.752L4.65637 14.88L3.98438 14.208L9.12037 9.40796L17.6164 17.424L16.9444 18.096Z" fill="#6FCF97"/>
<path d="M19.3916 15.6959L16.7996 13.5839L14.6396 15.3599L14.0156 14.5919L16.7996 12.3359L19.9676 14.9279L19.3916 15.6959Z" fill="#6FCF97"/>
</svg>
