<svg width="24" height="24" viewBox="0 0 24 24" fill="none" xmlns="http://www.w3.org/2000/svg">
<path d="M19.2002 11.1361C19.2002 10.1281 18.3842 9.60009 17.2802 9.60009H14.0642C14.3042 8.73609 14.4002 7.92009 14.4002 7.20009C14.4002 4.41609 13.6322 3.84009 12.9602 3.84009C12.5282 3.84009 12.1922 3.88809 11.7602 4.12809C11.6162 4.22409 11.5682 4.32009 11.5202 4.46409L11.0402 7.05609C10.5122 8.40009 9.21616 9.60009 8.16016 10.4161V17.2801C8.54416 17.2801 8.92816 17.4721 9.40816 17.7121C9.93616 17.9521 10.4642 18.2401 11.0402 18.2401H15.6002C16.5602 18.2401 17.2802 17.4721 17.2802 16.8001C17.2802 16.6561 17.2802 16.5601 17.2322 16.4641C17.8082 16.2241 18.2402 15.7441 18.2402 15.1201C18.2402 14.8321 18.1922 14.5921 18.0962 14.3521C18.4802 14.1121 18.8162 13.6801 18.8162 13.2001C18.8162 12.9121 18.6722 12.6241 18.5282 12.3841C18.9122 12.0961 19.2002 11.6161 19.2002 11.1361ZM18.1922 11.1361C18.1922 11.7601 17.5682 11.8081 17.4722 12.0961C17.3762 12.4321 17.8562 12.5281 17.8562 13.1041C17.8562 13.6801 17.1362 13.6801 17.0402 14.0161C16.9442 14.4001 17.2802 14.4961 17.2802 15.0721V15.1681C17.1842 15.6481 16.4642 15.6961 16.3202 15.8881C16.1762 16.1281 16.3202 16.2241 16.3202 16.7521C16.3202 17.0401 15.9842 17.2321 15.6002 17.2321H11.0402C10.6562 17.2321 10.2722 17.0401 9.79216 16.8001C9.40816 16.6081 9.02416 16.4161 8.64016 16.3201V11.2801C9.84016 10.3681 11.3762 9.02409 11.9522 7.34409V7.24809L12.3842 4.84809C12.5762 4.80009 12.7202 4.80009 12.9602 4.80009C13.0562 4.80009 13.4402 5.37609 13.4402 7.20009C13.4402 7.92009 13.2962 8.68809 13.0562 9.60009H12.9602C12.6722 9.60009 12.4802 9.79209 12.4802 10.0801C12.4802 10.3681 12.6722 10.5601 12.9602 10.5601H17.2802C17.7602 10.5601 18.1922 10.8001 18.1922 11.1361Z" fill="#A4B2BB"/>
<path d="M7.67984 18.2401H4.79984C4.27184 18.2401 3.83984 17.8081 3.83984 17.2801V10.5601C3.83984 10.0321 4.27184 9.6001 4.79984 9.6001H7.67984C8.20784 9.6001 8.63984 10.0321 8.63984 10.5601V17.2801C8.63984 17.8081 8.20784 18.2401 7.67984 18.2401ZM4.79984 10.5601V17.2801H7.67984V10.5601H4.79984Z" fill="#A4B2BB"/>
</svg>
