<svg width="24" height="24" viewBox="0 0 24 24" fill="none" xmlns="http://www.w3.org/2000/svg">
<path d="M11.9998 18.2399C8.54377 18.2399 5.75977 15.4559 5.75977 11.9999C5.75977 10.4639 6.33577 9.02395 7.34377 7.87195L8.06377 8.49595C7.19977 9.45595 6.71977 10.7039 6.71977 11.9999C6.71977 14.9279 9.07177 17.2799 11.9998 17.2799C12.7678 17.2799 13.4878 17.1359 14.2078 16.7999L14.5918 17.6639C13.7758 18.0479 12.9118 18.2399 11.9998 18.2399Z" fill="#6FCF97"/>
<path d="M16.6562 16.176L15.9362 15.552C16.8002 14.592 17.2802 13.344 17.2802 12.048C17.2802 9.11998 14.9282 6.76798 12.0002 6.76798C11.2322 6.76798 10.5122 6.91198 9.7922 7.24798L9.4082 6.38398C10.2242 5.99998 11.0882 5.80798 12.0002 5.80798C15.4562 5.80798 18.2402 8.59198 18.2402 12.048C18.2402 13.536 17.6642 15.024 16.6562 16.176Z" fill="#6FCF97"/>
<path d="M8.6398 11.5201H7.6798V8.64005H4.7998V7.68005H8.6398V11.5201Z" fill="#6FCF97"/>
<path d="M19.2003 16.32H15.3604V12.48H16.3204V15.36H19.2003V16.32Z" fill="#6FCF97"/>
</svg>
