<svg width="32" height="32" viewBox="0 0 32 32" fill="none" xmlns="http://www.w3.org/2000/svg">
<path d="M29.6615 0H2.33846C0.984615 0 0 0.984615 0 2.33846V29.6615C0 30.8923 1.10769 32 2.33846 32H29.6615C31.0154 32 32 31.0154 32 29.6615V2.33846C32 0.984615 30.8923 0 29.6615 0ZM9.84615 27.0769H4.92308V12.3077H9.84615V27.0769ZM7.38462 10.3385C5.78462 10.3385 4.43077 8.98462 4.43077 7.38462C4.43077 5.78462 5.78462 4.43077 7.38462 4.43077C8.98462 4.43077 10.3385 5.78462 10.3385 7.38462C10.3385 8.98462 8.98462 10.3385 7.38462 10.3385ZM27.0769 27.0769H22.1538V19.6923C22.1538 17.7231 21.6615 15.7538 19.6923 15.7538C17.7231 15.7538 17.2308 17.7231 17.2308 19.6923V27.0769H12.3077V12.3077H17.2308V14.0308H17.4769C18.0923 12.8 19.6923 11.8154 21.5385 11.8154C26.0923 11.8154 27.0769 14.7692 27.0769 18.4615V27.0769Z" fill="#E9E9E9"/>
</svg>
