<svg width="33" height="32" viewBox="0 0 33 32" fill="none" xmlns="http://www.w3.org/2000/svg">
<path fill-rule="evenodd" clip-rule="evenodd" d="M16.3335 0C11.9889 0 11.4436 0.0184616 9.73657 0.0960001C8.03319 0.173539 6.87011 0.444308 5.85226 0.839385C4.78484 1.24141 3.81795 1.87144 3.01903 2.68554C2.20479 3.48481 1.57475 4.45213 1.17288 5.52C0.777804 6.53662 0.508265 7.69969 0.429496 9.40308C0.351958 11.1102 0.333496 11.6554 0.333496 16C0.333496 20.3446 0.351958 20.8898 0.429496 22.5969C0.507035 24.3003 0.777804 25.4634 1.17288 26.48C1.58273 27.5323 2.12919 28.4246 3.01903 29.3145C3.81795 30.1286 4.78484 30.7586 5.85226 31.1606C6.87011 31.5545 8.03319 31.8252 9.73657 31.904C11.4436 31.9815 11.9889 32 16.3335 32C20.6781 32 21.2233 31.9815 22.9304 31.904C24.6338 31.8265 25.7969 31.5557 26.8135 31.1606C27.8814 30.7588 28.8487 30.1287 29.648 29.3145C30.4622 28.5152 31.0922 27.5479 31.4941 26.48C31.888 25.4634 32.1587 24.3003 32.2375 22.5969C32.315 20.8898 32.3335 20.3446 32.3335 16C32.3335 11.6554 32.315 11.1102 32.2375 9.40308C32.16 7.69969 31.8892 6.53662 31.4929 5.52C31.0914 4.45225 30.4618 3.48494 29.648 2.68554C28.8487 1.87126 27.8814 1.24122 26.8135 0.839385C25.7969 0.445539 24.6338 0.174769 22.9304 0.0960001C21.2233 0.0184616 20.6781 0 16.3335 0ZM16.3335 2.88246C20.6055 2.88246 21.1113 2.89969 22.7987 2.976C24.3581 3.04738 25.2061 3.30831 25.7698 3.52738C26.5169 3.81785 27.0498 4.16369 27.6098 4.72369C28.1698 5.28369 28.5156 5.81662 28.8061 6.56369C29.0252 7.12739 29.2861 7.97415 29.3575 9.53477C29.4338 11.2209 29.451 11.728 29.451 16C29.451 20.272 29.4338 20.7778 29.3575 22.4652C29.2861 24.0258 29.0252 24.8726 28.8061 25.4363C28.5498 26.1313 28.141 26.7601 27.6098 27.2763C27.0936 27.8076 26.4648 28.2164 25.7698 28.4726C25.2061 28.6917 24.3581 28.9526 22.7987 29.024C21.1126 29.1003 20.6055 29.1175 16.3335 29.1175C12.0615 29.1175 11.5544 29.1003 9.86827 29.024C8.30765 28.9526 7.46088 28.6917 6.89719 28.4726C6.20216 28.2164 5.57342 27.8076 5.05719 27.2763C4.52603 26.76 4.11725 26.1313 3.86088 25.4363C3.6418 24.8726 3.38088 24.0258 3.3095 22.4652C3.23319 20.7791 3.21596 20.272 3.21596 16C3.21596 11.728 3.23319 11.2222 3.3095 9.53477C3.38088 7.97415 3.6418 7.12739 3.86088 6.56369C4.15134 5.81662 4.49719 5.28369 5.05719 4.72369C5.57344 4.19246 6.20218 3.78368 6.89719 3.52738C7.46088 3.30831 8.30765 3.04738 9.86827 2.976C11.5544 2.89969 12.0615 2.88246 16.3335 2.88246Z" fill="#E9E9E9"/>
<path fill-rule="evenodd" clip-rule="evenodd" d="M16.3336 7.38522C14.0487 7.38522 11.8573 8.29291 10.2417 9.9086C8.62595 11.5243 7.71826 13.7157 7.71826 16.0006C7.71826 18.2855 8.62595 20.4769 10.2417 22.0926C11.8573 23.7083 14.0487 24.616 16.3336 24.616C18.6186 24.616 20.8099 23.7083 22.4256 22.0926C24.0413 20.4769 24.949 18.2855 24.949 16.0006C24.949 13.7157 24.0413 11.5243 22.4256 9.9086C20.8099 8.29291 18.6186 7.38522 16.3336 7.38522ZM16.3336 21.5391C14.8648 21.5391 13.456 20.9555 12.4174 19.9169C11.3787 18.8782 10.7952 17.4695 10.7952 16.0006C10.7952 14.5317 11.3787 13.123 12.4174 12.0843C13.456 11.0457 14.8648 10.4621 16.3336 10.4621C17.8025 10.4621 19.2113 11.0457 20.2499 12.0843C21.2886 13.123 21.8721 14.5317 21.8721 16.0006C21.8721 17.4695 21.2886 18.8782 20.2499 19.9169C19.2113 20.9555 17.8025 21.5391 16.3336 21.5391ZM27.0413 7.50829C27.0413 7.7669 26.9904 8.02297 26.8914 8.26188C26.7925 8.5008 26.6474 8.71789 26.4646 8.90075C26.2817 9.08361 26.0646 9.22866 25.8257 9.32762C25.5868 9.42659 25.3307 9.47752 25.0721 9.47752C24.8135 9.47752 24.5574 9.42659 24.3185 9.32762C24.0796 9.22866 23.8625 9.08361 23.6797 8.90075C23.4968 8.71789 23.3517 8.5008 23.2528 8.26188C23.1538 8.02297 23.1029 7.7669 23.1029 7.50829C23.1029 6.98602 23.3104 6.48514 23.6797 6.11584C24.049 5.74654 24.5498 5.53906 25.0721 5.53906C25.5944 5.53906 26.0953 5.74654 26.4646 6.11584C26.8339 6.48514 27.0413 6.98602 27.0413 7.50829Z" fill="#E9E9E9"/>
</svg>
