<svg width="19" height="32" viewBox="0 0 19 32" fill="none" xmlns="http://www.w3.org/2000/svg">
<path fill-rule="evenodd" clip-rule="evenodd" d="M1.06767 8.36603C1.06767 12.9673 4.83238 16.7321 9.4337 16.7321C14.035 16.7321 17.7997 12.9673 17.7997 8.36603C17.7997 3.76471 14.035 0 9.4337 0C4.83238 0 1.06767 3.76471 1.06767 8.36603ZM5.04153 8.36603C5.04153 5.9608 7.02847 3.97387 9.4337 3.97387C11.8389 3.97387 13.8259 5.9608 13.8259 8.36603C13.8259 10.7713 11.8389 12.7582 9.4337 12.7582C7.02847 12.7582 5.04153 10.7713 5.04153 8.36603ZM15.4991 17.1502C16.4402 16.5228 17.6951 16.6273 18.4272 17.5685C19.1592 18.4051 18.95 19.7646 18.0089 20.4966C17.9915 20.4966 17.9165 20.5427 17.7868 20.6225C17.1348 21.0233 15.1006 22.274 12.0481 22.7973L17.5906 28.4444C18.4272 29.281 18.4272 30.5359 17.5906 31.3725C17.1723 31.7908 16.6494 31.9999 16.1265 31.9999C15.6036 31.9999 15.0808 31.7908 14.6624 31.3725L9.43368 26.0391L4.20491 31.3725C3.7866 31.7908 3.26373 31.9999 2.74085 31.9999C2.21797 31.9999 1.6951 31.7908 1.2768 31.3725C0.440193 30.6404 0.440193 29.281 1.2768 28.4444L6.81929 22.7973C3.15915 22.2744 0.963068 20.6012 0.858493 20.4966C-0.0826861 19.7646 -0.291837 18.5097 0.440191 17.5685C1.17222 16.6273 2.42713 16.4182 3.3683 17.1502C3.3683 17.1502 5.66896 18.8234 9.43368 18.8234C13.1984 18.8234 15.4991 17.1502 15.4991 17.1502Z" fill="#E9E9E9"/>
</svg>
