<svg width="36" height="36" viewBox="0 0 36 36" fill="none" xmlns="http://www.w3.org/2000/svg">
<path d="M31.9781 30.041L22.848 20.9109C24.2648 19.0793 25.0312 16.8398 25.0312 14.4844C25.0312 11.6648 23.9309 9.02109 21.941 7.02773C19.9512 5.03437 17.3004 3.9375 14.4844 3.9375C11.6684 3.9375 9.01758 5.03789 7.02773 7.02773C5.03437 9.01758 3.9375 11.6648 3.9375 14.4844C3.9375 17.3004 5.03789 19.9512 7.02773 21.941C9.01758 23.9344 11.6648 25.0312 14.4844 25.0312C16.8398 25.0312 19.0758 24.2648 20.9074 22.8516L30.0375 31.9781C30.0643 32.0049 30.0961 32.0262 30.131 32.0407C30.166 32.0552 30.2035 32.0626 30.2414 32.0626C30.2793 32.0626 30.3168 32.0552 30.3518 32.0407C30.3868 32.0262 30.4185 32.0049 30.4453 31.9781L31.9781 30.4488C32.0049 30.4221 32.0262 30.3903 32.0407 30.3553C32.0552 30.3203 32.0626 30.2828 32.0626 30.2449C32.0626 30.2071 32.0552 30.1695 32.0407 30.1346C32.0262 30.0996 32.0049 30.0678 31.9781 30.041ZM20.0531 20.0531C18.5625 21.5402 16.5867 22.3594 14.4844 22.3594C12.382 22.3594 10.4063 21.5402 8.91563 20.0531C7.42852 18.5625 6.60938 16.5867 6.60938 14.4844C6.60938 12.382 7.42852 10.4027 8.91563 8.91563C10.4063 7.42852 12.382 6.60938 14.4844 6.60938C16.5867 6.60938 18.566 7.425 20.0531 8.91563C21.5402 10.4063 22.3594 12.382 22.3594 14.4844C22.3594 16.5867 21.5402 18.566 20.0531 20.0531Z" fill="#232E3C"/>
</svg>
