<svg width="37" height="37" viewBox="0 0 37 37" fill="none" xmlns="http://www.w3.org/2000/svg">
<path d="M32.0187 30.8022L22.8886 21.6721C24.3054 19.8405 25.0718 17.601 25.0718 15.2456C25.0718 12.426 23.9714 9.78229 21.9815 7.78893C19.9917 5.79557 17.3409 4.6987 14.5249 4.6987C11.7089 4.6987 9.0581 5.79909 7.06826 7.78893C5.0749 9.77878 3.97803 12.426 3.97803 15.2456C3.97803 18.0616 5.07842 20.7124 7.06826 22.7022C9.0581 24.6956 11.7054 25.7924 14.5249 25.7924C16.8804 25.7924 19.1163 25.026 20.948 23.6128L30.078 32.7393C30.1048 32.7661 30.1366 32.7874 30.1716 32.8019C30.2066 32.8164 30.2441 32.8238 30.2819 32.8238C30.3198 32.8238 30.3573 32.8164 30.3923 32.8019C30.4273 32.7874 30.4591 32.7661 30.4858 32.7393L32.0187 31.21C32.0454 31.1833 32.0667 31.1515 32.0812 31.1165C32.0957 31.0815 32.1031 31.044 32.1031 31.0061C32.1031 30.9683 32.0957 30.9307 32.0812 30.8958C32.0667 30.8608 32.0454 30.829 32.0187 30.8022ZM20.0937 20.8143C18.603 22.3014 16.6272 23.1206 14.5249 23.1206C12.4226 23.1206 10.4468 22.3014 8.95615 20.8143C7.46904 19.3237 6.6499 17.3479 6.6499 15.2456C6.6499 13.1432 7.46904 11.1639 8.95615 9.67683C10.4468 8.18972 12.4226 7.37057 14.5249 7.37057C16.6272 7.37057 18.6065 8.1862 20.0937 9.67683C21.5808 11.1675 22.3999 13.1432 22.3999 15.2456C22.3999 17.3479 21.5808 19.3272 20.0937 20.8143Z" fill="#6FCF97"/>
</svg>
