<svg width="98" height="75" viewBox="0 0 98 75" fill="none" xmlns="http://www.w3.org/2000/svg">
<g clip-path="url(#clip0)">
<rect width="1440" height="12315" transform="translate(-147 -5074)" fill="white"/>
<g clip-path="url(#clip1)">
<rect width="746" height="250" transform="translate(9 -14)" fill="white"/>
<path d="M9.55859 48.6094C9.55859 43.5312 10.4701 38.7135 12.293 34.1562C14.181 29.599 16.9479 25.4648 20.5938 21.7539C24.3047 18.043 28.8945 14.8529 34.3633 12.1836C39.8971 9.44922 46.3099 7.39844 53.6016 6.03125L51.3555 16.5781C37.6836 19.8333 30.8477 25.3672 30.8477 33.1797C30.8477 34.612 31.1081 35.8164 31.6289 36.793C32.2148 37.7695 32.8984 38.681 33.6797 39.5273C34.526 40.3086 35.4375 41.0898 36.4141 41.8711C37.3906 42.6523 38.2695 43.5638 39.0508 44.6055C39.8971 45.582 40.5807 46.7539 41.1016 48.1211C41.6875 49.4232 41.9805 51.0508 41.9805 53.0039C41.9805 55.1523 41.5573 57.0729 40.7109 58.7656C39.9297 60.4583 38.8555 61.9232 37.4883 63.1602C36.1211 64.332 34.526 65.2435 32.7031 65.8945C30.9453 66.4805 29.0573 66.7734 27.0391 66.7734C24.6302 66.7734 22.3516 66.3828 20.2031 65.6016C18.1198 64.7552 16.2643 63.5833 14.6367 62.0859C13.0742 60.5234 11.8372 58.6354 10.9258 56.4219C10.0143 54.1432 9.55859 51.5391 9.55859 48.6094ZM51.3555 48.6094C51.3555 43.5312 52.2669 38.7135 54.0898 34.1562C55.9779 29.599 58.7448 25.4648 62.3906 21.7539C66.1016 18.043 70.6914 14.8529 76.1602 12.1836C81.694 9.44922 88.1068 7.39844 95.3984 6.03125L93.1523 16.5781C79.4805 19.8333 72.6445 25.3672 72.6445 33.1797C72.6445 34.612 72.9049 35.8164 73.4258 36.793C74.0117 37.7695 74.6953 38.681 75.4766 39.5273C76.3229 40.3086 77.2344 41.0898 78.2109 41.8711C79.1875 42.6523 80.0664 43.5638 80.8477 44.6055C81.694 45.582 82.3776 46.7539 82.8984 48.1211C83.4844 49.4232 83.7773 51.0508 83.7773 53.0039C83.7773 55.1523 83.3542 57.0729 82.5078 58.7656C81.7266 60.4583 80.6523 61.9232 79.2852 63.1602C77.918 64.332 76.3229 65.2435 74.5 65.8945C72.7422 66.4805 70.8542 66.7734 68.8359 66.7734C66.4271 66.7734 64.1484 66.3828 62 65.6016C59.9167 64.7552 58.0612 63.5833 56.4336 62.0859C54.8711 60.5234 53.6341 58.6354 52.7227 56.4219C51.8112 54.1432 51.3555 51.5391 51.3555 48.6094Z" fill="#6FCF97"/>
<path d="M117.296 47.424H110.624L110.432 48.168C112.28 48.336 112.424 48.528 112.064 50.424L111.344 54.168H104.456L105.176 50.424C105.536 48.552 105.704 48.336 107.408 48.168L107.6 47.424H100.88L100.712 48.168C102.656 48.336 102.848 48.504 102.488 50.424L100.616 59.976C100.256 61.872 100.136 62.088 98.336 62.256L98.168 63H104.864L105.032 62.256C103.136 62.088 102.992 61.896 103.352 59.976L104.216 55.32H111.104L110.24 59.976C109.88 61.872 109.712 62.088 107.816 62.256L107.648 63H114.488L114.656 62.256C112.712 62.088 112.568 61.896 112.952 59.976L114.8 50.424C115.16 48.528 115.304 48.336 117.128 48.168L117.296 47.424ZM124.291 59.76C123.139 60.864 121.795 61.56 120.835 61.56C119.515 61.56 119.083 60.384 119.083 59.136C119.083 58.944 119.083 58.728 119.107 58.44C121.483 57.816 125.347 56.592 125.347 54.168C125.347 53.088 124.531 52.152 122.995 52.152C121.795 52.152 120.283 52.848 119.299 53.616C117.475 55.032 116.467 57.48 116.467 59.712C116.467 62.568 118.003 63.288 119.299 63.288C120.787 63.288 122.611 62.64 124.747 60.384L124.291 59.76ZM122.011 53.208C122.443 53.208 123.019 53.592 123.019 54.504C123.019 55.728 122.083 56.76 119.203 57.6C119.563 55.08 120.595 53.832 121.171 53.472C121.411 53.304 121.747 53.208 122.011 53.208ZM143.633 60.168C143.081 60.696 142.337 61.2 142.121 61.2C141.977 61.2 141.905 61.032 142.049 60.432L143.129 55.728C143.897 52.488 143.033 52.152 142.433 52.152C141.953 52.152 141.497 52.296 140.873 52.656C139.985 53.16 138.497 54.312 136.889 56.448H136.841L137.009 55.704C137.681 52.584 136.913 52.152 136.241 52.152C135.737 52.152 135.233 52.32 134.633 52.68C133.817 53.16 132.281 54.36 130.673 56.544H130.625L130.985 55.008C131.465 53.04 131.369 52.152 130.625 52.152C129.809 52.152 128.273 53.064 126.785 54.6L127.097 55.248C127.601 54.792 128.393 54.216 128.657 54.216C128.801 54.24 128.849 54.432 128.681 55.128C128.081 57.864 127.481 60.432 126.761 63.072L126.953 63.288C127.625 63.072 128.513 62.88 129.329 62.808C129.641 61.272 130.025 59.544 130.385 58.368C131.105 56.928 133.577 54.048 134.513 54.048C134.897 54.048 134.921 54.6 134.609 56.064C134.105 58.32 133.529 60.672 132.953 63.072L133.121 63.288C133.769 63.072 134.681 62.88 135.545 62.808C135.833 61.296 136.193 59.664 136.505 58.344C137.345 56.808 139.769 54.048 140.657 54.048C140.945 54.048 141.041 54.48 140.801 55.464L139.529 60.864C139.097 62.712 139.433 63.288 140.129 63.288C140.849 63.288 142.505 62.472 143.969 60.816L143.633 60.168ZM162.126 60.336C161.454 60.912 160.758 61.344 160.542 61.344C160.374 61.344 160.326 61.08 160.494 60.312C160.926 58.032 161.766 54 162.366 52.152H162.102L159.702 52.8C159.414 53.952 159.102 55.56 158.79 56.88H155.094L155.598 54.528C155.934 52.992 155.862 52.152 155.166 52.152C154.23 52.152 152.382 53.232 151.158 54.504L151.47 55.176C151.974 54.696 152.814 54.168 153.078 54.168C153.222 54.168 153.246 54.432 153.078 55.224C152.478 57.864 151.926 60.36 151.23 63.096L151.374 63.288C152.19 63.072 153.006 62.856 153.822 62.688C154.086 61.392 154.542 59.424 154.878 57.912H158.55C158.334 58.944 158.094 60.12 157.902 61.128C157.638 62.52 157.878 63.288 158.55 63.288C159.294 63.288 161.07 62.496 162.39 60.984L162.126 60.336ZM174.783 60.048C174.183 60.648 173.391 61.152 173.175 61.152C173.007 61.152 172.983 60.936 173.127 60.144C173.703 57.216 174.303 54.624 174.927 52.152H174.639L172.335 52.8C172.023 54.288 171.687 55.8 171.351 57.192C170.703 58.392 168.447 61.296 167.271 61.296C166.911 61.296 166.791 60.888 167.055 59.76C167.463 58.032 167.871 56.208 168.255 54.48C168.663 52.704 168.495 52.152 167.847 52.152C167.007 52.152 165.399 53.112 163.911 54.552L164.199 55.224C164.871 54.696 165.543 54.168 165.735 54.168C165.927 54.168 165.927 54.456 165.759 55.152C165.375 56.784 164.991 58.368 164.631 59.952C163.959 62.832 164.823 63.288 165.519 63.288C166.071 63.288 166.719 63.096 167.295 62.712C168.159 62.16 169.575 60.984 170.991 59.088H171.039C170.919 59.664 170.799 60.192 170.679 60.792C170.271 62.568 170.535 63.288 171.231 63.288C172.047 63.288 173.583 62.448 175.143 60.696L174.783 60.048ZM186.814 60.36C186.262 60.864 185.446 61.32 185.23 61.32C185.062 61.32 185.014 61.08 185.182 60.432C185.83 57.6 186.478 54.936 187.126 52.152H186.886L184.486 52.8C184.198 54.192 184.102 54.504 183.91 55.032C183.478 56.04 181.462 57.96 180.598 57.96C180.166 57.96 179.926 57.672 180.238 56.376L180.838 54.048C181.15 52.8 181.006 52.152 180.286 52.152C179.254 52.152 177.574 53.208 176.229 54.504L176.566 55.2C177.19 54.648 177.91 54.192 178.126 54.192C178.246 54.312 178.318 54.408 178.15 55.08L177.622 57.144C177.142 59.04 178.006 59.52 178.918 59.52C180.142 59.52 181.798 58.68 183.526 56.832H183.574L182.59 60.912C182.158 62.664 182.493 63.288 183.166 63.288C183.91 63.288 185.782 62.448 187.15 61.032L186.814 60.36ZM196.385 59.76C195.233 60.864 193.889 61.56 192.929 61.56C191.609 61.56 191.177 60.384 191.177 59.136C191.177 58.944 191.177 58.728 191.201 58.44C193.577 57.816 197.441 56.592 197.441 54.168C197.441 53.088 196.625 52.152 195.089 52.152C193.889 52.152 192.377 52.848 191.393 53.616C189.569 55.032 188.561 57.48 188.561 59.712C188.561 62.568 190.097 63.288 191.393 63.288C192.881 63.288 194.705 62.64 196.841 60.384L196.385 59.76ZM194.105 53.208C194.537 53.208 195.113 53.592 195.113 54.504C195.113 55.728 194.177 56.76 191.297 57.6C191.657 55.08 192.689 53.832 193.265 53.472C193.505 53.304 193.841 53.208 194.105 53.208ZM200.18 54.96C200.78 54.384 201.716 53.688 202.556 53.688C203.252 53.688 203.684 54.192 203.684 54.84C203.684 55.68 203.06 56.376 201.884 57.024L200.588 57.768C199.1 58.608 198.044 59.4 198.044 60.816C198.044 62.064 198.956 63.288 200.9 63.288C202.508 63.288 204.092 62.424 205.292 61.176L204.836 60.48C204.092 61.128 203.156 61.704 202.172 61.704C201.332 61.704 200.66 61.128 200.66 60.24C200.66 59.256 201.404 58.68 202.676 57.936L203.78 57.312C205.196 56.472 206.276 55.848 206.252 54.384C206.228 53.112 205.22 52.152 203.756 52.152C201.932 52.152 200.492 53.472 199.772 54.24L200.18 54.96ZM210.769 63.288C212.209 63.288 213.697 62.64 214.729 61.752C216.457 60.288 217.297 58.032 217.297 55.944C217.297 53.616 216.097 52.152 213.865 52.152C212.929 52.152 211.873 52.488 210.913 52.992C209.041 53.976 207.313 56.28 207.313 59.424C207.313 61.296 208.105 63.288 210.769 63.288ZM211.681 62.256C210.769 62.256 210.025 61.32 210.025 59.496C210.025 55.656 211.537 53.64 212.281 53.304C212.497 53.208 212.761 53.16 212.977 53.16C213.889 53.16 214.561 54 214.585 55.872C214.585 59.16 213.409 61.704 212.353 62.136C212.137 62.208 211.969 62.256 211.681 62.256ZM227.665 53.664C227.905 52.296 228.409 51.288 229.009 50.616C229.609 49.968 230.449 49.632 231.817 49.488C232.705 49.368 233.569 49.2 234.313 48.888C235.441 48.408 235.993 47.064 236.137 46.104C236.161 45.912 235.969 45.816 235.777 46.032C235.417 46.44 234.601 46.704 233.449 47.016C232.585 47.256 231.961 47.52 231.193 47.88C230.233 48.336 229.105 49.152 227.929 50.352C225.721 52.608 224.401 55.68 224.401 58.824C224.401 61.176 225.289 63.288 227.953 63.288C229.153 63.288 230.617 62.64 231.649 61.728C233.281 60.312 234.289 58.08 234.289 55.896C234.289 53.664 233.233 52.152 231.289 52.152C230.185 52.152 228.913 52.728 227.737 53.712L227.665 53.664ZM230.089 53.352C231.001 53.352 231.577 54.144 231.577 55.92C231.601 59.232 230.233 61.584 229.417 61.992C229.153 62.136 228.961 62.184 228.673 62.184C227.689 62.184 227.065 60.96 227.065 59.064C227.089 57.24 227.473 55.848 227.833 55.056C228.337 54.144 229.273 53.352 230.089 53.352ZM239.409 63.288C240.849 63.288 242.337 62.64 243.369 61.752C245.097 60.288 245.937 58.032 245.937 55.944C245.937 53.616 244.737 52.152 242.505 52.152C241.569 52.152 240.513 52.488 239.553 52.992C237.681 53.976 235.953 56.28 235.953 59.424C235.953 61.296 236.745 63.288 239.409 63.288ZM240.321 62.256C239.409 62.256 238.665 61.32 238.665 59.496C238.665 55.656 240.177 53.64 240.921 53.304C241.137 53.208 241.401 53.16 241.617 53.16C242.529 53.16 243.201 54 243.225 55.872C243.225 59.16 242.049 61.704 240.993 62.136C240.777 62.208 240.609 62.256 240.321 62.256ZM257.757 52.152C257.349 52.248 256.461 52.416 255.357 52.56C253.461 52.776 250.701 52.92 249.093 52.92C248.829 52.944 248.565 53.88 248.373 54.24C249.165 54.192 250.005 54.12 250.893 54.048C250.581 55.728 249.597 58.416 248.469 60.024C247.701 61.104 246.909 61.872 246.045 62.424L245.997 62.664C246.093 62.928 246.669 63.336 247.197 63.336C247.533 63.336 247.869 63.216 248.445 62.592C250.221 60.504 251.397 56.496 251.997 53.976C253.101 53.856 253.941 53.76 254.565 53.664C253.917 56.232 253.269 58.728 252.861 60.888C252.477 62.784 252.885 63.312 253.509 63.312C254.205 63.312 256.053 62.424 257.421 60.984L257.109 60.312C256.509 60.84 255.741 61.296 255.573 61.296C255.381 61.296 255.333 61.104 255.429 60.36C255.717 58.488 256.149 56.64 256.557 54.792C256.869 53.448 257.109 53.232 257.565 52.992L257.877 52.848L257.757 52.152ZM266.557 59.76C265.405 60.864 264.061 61.56 263.101 61.56C261.781 61.56 261.349 60.384 261.349 59.136C261.349 58.944 261.349 58.728 261.373 58.44C263.749 57.816 267.613 56.592 267.613 54.168C267.613 53.088 266.797 52.152 265.261 52.152C264.061 52.152 262.549 52.848 261.565 53.616C259.741 55.032 258.733 57.48 258.733 59.712C258.733 62.568 260.269 63.288 261.565 63.288C263.053 63.288 264.877 62.64 267.013 60.384L266.557 59.76ZM264.277 53.208C264.709 53.208 265.285 53.592 265.285 54.504C265.285 55.728 264.349 56.76 261.469 57.6C261.829 55.08 262.861 53.832 263.437 53.472C263.677 53.304 264.013 53.208 264.277 53.208ZM276.448 59.76C275.296 60.864 273.952 61.56 272.992 61.56C271.672 61.56 271.24 60.384 271.24 59.136C271.24 58.944 271.24 58.728 271.264 58.44C273.64 57.816 277.504 56.592 277.504 54.168C277.504 53.088 276.688 52.152 275.152 52.152C273.952 52.152 272.44 52.848 271.456 53.616C269.632 55.032 268.624 57.48 268.624 59.712C268.624 62.568 270.16 63.288 271.456 63.288C272.944 63.288 274.768 62.64 276.904 60.384L276.448 59.76ZM274.168 53.208C274.6 53.208 275.176 53.592 275.176 54.504C275.176 55.728 274.24 56.76 271.36 57.6C271.72 55.08 272.752 53.832 273.328 53.472C273.568 53.304 273.904 53.208 274.168 53.208ZM294.874 60.144C294.274 60.72 293.578 61.176 293.386 61.176C293.194 61.176 293.17 60.912 293.314 60.312C293.674 58.776 294.01 57.24 294.37 55.752C295.09 52.56 294.37 52.152 293.626 52.152C293.098 52.152 292.45 52.392 291.778 52.824C290.746 53.52 289.282 54.768 287.962 56.568H287.914L288.274 55.056C288.754 52.896 288.514 52.152 287.89 52.152C287.074 52.152 285.586 52.992 284.05 54.552L284.386 55.224C284.914 54.696 285.706 54.216 285.922 54.216C286.09 54.216 286.114 54.408 285.946 55.152C285.346 57.888 284.698 60.576 284.098 63.072L284.266 63.288C284.89 63.072 285.826 62.88 286.642 62.784C286.93 61.272 287.29 59.664 287.626 58.416C288.586 56.712 290.986 54.048 291.874 54.048C292.186 54.048 292.306 54.36 291.994 55.632C291.61 57.336 291.202 59.04 290.794 60.744C290.338 62.736 290.746 63.288 291.394 63.288C292.162 63.288 293.578 62.568 295.258 60.816L294.874 60.144ZM301.819 50.544L301.555 50.376C300.787 50.736 299.659 51.456 299.131 52.008L298.867 53.064C298.099 53.376 297.283 53.736 296.539 54.24L296.755 54.936C297.283 54.648 297.907 54.36 298.651 54.12C297.835 58.056 296.995 62.064 296.131 66.168C295.819 67.608 295.507 67.872 294.091 68.16L293.923 68.88L300.115 68.592L300.235 67.848L299.683 67.8C298.507 67.656 298.339 67.44 298.579 66.192L299.179 63.072C299.659 63.24 300.067 63.288 300.475 63.288C302.107 62.904 303.907 61.824 305.083 60.504C306.427 59.016 307.099 57.144 307.099 55.656C307.099 53.4 306.091 52.152 303.571 52.152C302.851 52.152 302.131 52.224 301.387 52.44L301.819 50.544ZM301.147 53.496C301.507 53.4 301.891 53.328 302.275 53.328C303.403 53.328 304.387 53.832 304.387 55.848C304.387 58.872 302.323 62.184 300.859 62.184C300.379 62.208 299.803 61.752 299.563 61.416L301.147 53.496ZM316.385 59.76C315.233 60.864 313.889 61.56 312.929 61.56C311.609 61.56 311.177 60.384 311.177 59.136C311.177 58.944 311.177 58.728 311.201 58.44C313.577 57.816 317.441 56.592 317.441 54.168C317.441 53.088 316.625 52.152 315.089 52.152C313.889 52.152 312.377 52.848 311.393 53.616C309.569 55.032 308.561 57.48 308.561 59.712C308.561 62.568 310.097 63.288 311.393 63.288C312.881 63.288 314.705 62.64 316.841 60.384L316.385 59.76ZM314.105 53.208C314.537 53.208 315.113 53.592 315.113 54.504C315.113 55.728 314.177 56.76 311.297 57.6C311.657 55.08 312.689 53.832 313.265 53.472C313.505 53.304 313.841 53.208 314.105 53.208ZM325.844 59.928C325.268 60.504 323.876 61.56 322.772 61.56C321.788 61.56 321.188 60.792 321.188 59.064C321.188 57.336 321.596 55.68 322.148 54.648C322.556 53.832 323.036 53.352 323.636 53.352C324.284 53.352 324.884 53.784 325.508 54.696C325.676 54.96 325.916 54.984 326.156 54.816C326.828 54.432 327.116 53.904 327.092 53.472C327.092 52.728 326.18 52.152 325.052 52.152C323.78 52.152 322.076 53.016 321.044 53.928C319.364 55.392 318.476 57.696 318.476 59.712C318.476 62.04 319.532 63.288 321.308 63.288C322.796 63.288 324.668 62.352 326.252 60.576L325.844 59.928ZM345.078 60.168C344.526 60.696 343.782 61.2 343.566 61.2C343.422 61.2 343.35 61.032 343.494 60.432L344.574 55.728C345.342 52.488 344.478 52.152 343.878 52.152C343.398 52.152 342.942 52.296 342.318 52.656C341.43 53.16 339.942 54.312 338.334 56.448H338.286L338.454 55.704C339.126 52.584 338.358 52.152 337.686 52.152C337.182 52.152 336.678 52.32 336.078 52.68C335.262 53.16 333.726 54.36 332.118 56.544H332.07L332.43 55.008C332.91 53.04 332.814 52.152 332.07 52.152C331.254 52.152 329.718 53.064 328.23 54.6L328.542 55.248C329.046 54.792 329.838 54.216 330.102 54.216C330.246 54.24 330.294 54.432 330.126 55.128C329.526 57.864 328.926 60.432 328.206 63.072L328.398 63.288C329.07 63.072 329.958 62.88 330.774 62.808C331.086 61.272 331.47 59.544 331.83 58.368C332.55 56.928 335.022 54.048 335.958 54.048C336.342 54.048 336.366 54.6 336.054 56.064C335.55 58.32 334.974 60.672 334.398 63.072L334.566 63.288C335.214 63.072 336.126 62.88 336.99 62.808C337.278 61.296 337.638 59.664 337.95 58.344C338.79 56.808 341.214 54.048 342.102 54.048C342.39 54.048 342.486 54.48 342.246 55.464L340.974 60.864C340.542 62.712 340.878 63.288 341.574 63.288C342.294 63.288 343.95 62.472 345.414 60.816L345.078 60.168ZM352.186 60.672C352.066 58.872 351.778 56.688 351.466 54.864C351.154 52.992 350.722 52.128 350.002 52.128C349.042 52.128 347.674 53.472 346.81 54.864L347.266 55.464C347.938 54.624 348.274 54.264 348.514 54.264C348.73 54.264 348.874 54.72 349.114 55.608C349.426 56.736 350.146 61.2 350.146 63.48C349.354 64.68 348.658 65.352 347.89 65.904C347.098 66.528 346.282 66.72 345.442 66.744C345.082 66.744 344.794 67.008 344.794 67.536C344.794 68.304 345.394 68.976 345.97 68.976C346.666 68.976 347.434 68.376 348.586 67.032C350.05 65.352 350.914 64.2 352.018 62.592C353.314 60.696 354.898 58.248 356.026 56.232C356.65 55.128 356.938 54.288 356.914 53.592C356.89 52.608 356.314 52.128 355.762 52.128C355.018 52.128 354.394 52.872 354.538 53.496C354.634 53.784 354.802 54.192 354.802 54.768C354.802 56.592 353.194 59.208 352.234 60.696L352.186 60.672ZM369.382 60.144C368.782 60.72 368.086 61.176 367.894 61.176C367.702 61.176 367.678 60.912 367.822 60.312C368.182 58.776 368.518 57.24 368.878 55.752C369.598 52.56 368.878 52.152 368.134 52.152C367.606 52.152 366.958 52.392 366.286 52.824C365.254 53.52 363.79 54.768 362.47 56.568H362.422L362.782 55.056C363.262 52.896 363.022 52.152 362.398 52.152C361.582 52.152 360.094 52.992 358.558 54.552L358.894 55.224C359.422 54.696 360.214 54.216 360.43 54.216C360.598 54.216 360.622 54.408 360.454 55.152C359.854 57.888 359.206 60.576 358.606 63.072L358.774 63.288C359.398 63.072 360.334 62.88 361.15 62.784C361.438 61.272 361.798 59.664 362.134 58.416C363.094 56.712 365.494 54.048 366.382 54.048C366.694 54.048 366.814 54.36 366.502 55.632C366.118 57.336 365.71 59.04 365.302 60.744C364.846 62.736 365.254 63.288 365.902 63.288C366.67 63.288 368.086 62.568 369.766 60.816L369.382 60.144ZM382.204 60.336C381.532 60.912 380.836 61.344 380.62 61.344C380.452 61.344 380.404 61.08 380.572 60.312C381.004 58.032 381.844 54 382.444 52.152H382.18L379.78 52.8C379.492 53.952 379.18 55.56 378.868 56.88H375.172L375.676 54.528C376.012 52.992 375.94 52.152 375.244 52.152C374.308 52.152 372.46 53.232 371.236 54.504L371.548 55.176C372.052 54.696 372.892 54.168 373.156 54.168C373.3 54.168 373.324 54.432 373.156 55.224C372.556 57.864 372.004 60.36 371.308 63.096L371.452 63.288C372.268 63.072 373.084 62.856 373.9 62.688C374.164 61.392 374.62 59.424 374.956 57.912H378.628C378.412 58.944 378.172 60.12 377.98 61.128C377.716 62.52 377.956 63.288 378.628 63.288C379.372 63.288 381.148 62.496 382.468 60.984L382.204 60.336ZM387.394 63.288C388.834 63.288 390.322 62.64 391.354 61.752C393.082 60.288 393.922 58.032 393.922 55.944C393.922 53.616 392.722 52.152 390.49 52.152C389.554 52.152 388.498 52.488 387.538 52.992C385.666 53.976 383.938 56.28 383.938 59.424C383.938 61.296 384.73 63.288 387.394 63.288ZM388.306 62.256C387.394 62.256 386.65 61.32 386.65 59.496C386.65 55.656 388.162 53.64 388.906 53.304C389.122 53.208 389.386 53.16 389.602 53.16C390.514 53.16 391.186 54 391.21 55.872C391.21 59.16 390.034 61.704 388.978 62.136C388.762 62.208 388.594 62.256 388.306 62.256ZM397.219 54.96C397.819 54.384 398.755 53.688 399.595 53.688C400.291 53.688 400.723 54.192 400.723 54.84C400.723 55.68 400.099 56.376 398.923 57.024L397.627 57.768C396.139 58.608 395.083 59.4 395.083 60.816C395.083 62.064 395.995 63.288 397.939 63.288C399.547 63.288 401.131 62.424 402.331 61.176L401.875 60.48C401.131 61.128 400.195 61.704 399.211 61.704C398.371 61.704 397.699 61.128 397.699 60.24C397.699 59.256 398.443 58.68 399.715 57.936L400.819 57.312C402.235 56.472 403.315 55.848 403.291 54.384C403.267 53.112 402.259 52.152 400.795 52.152C398.971 52.152 397.531 53.472 396.811 54.24L397.219 54.96ZM407.808 63.288C409.248 63.288 410.736 62.64 411.768 61.752C413.496 60.288 414.336 58.032 414.336 55.944C414.336 53.616 413.136 52.152 410.904 52.152C409.968 52.152 408.912 52.488 407.952 52.992C406.08 53.976 404.352 56.28 404.352 59.424C404.352 61.296 405.144 63.288 407.808 63.288ZM408.72 62.256C407.808 62.256 407.064 61.32 407.064 59.496C407.064 55.656 408.576 53.64 409.32 53.304C409.536 53.208 409.8 53.16 410.016 53.16C410.928 53.16 411.6 54 411.624 55.872C411.624 59.16 410.448 61.704 409.392 62.136C409.176 62.208 409.008 62.256 408.72 62.256ZM427.753 52.152C427.081 52.152 425.833 52.512 424.825 53.064C423.121 54 421.321 56.208 421.321 59.4C421.321 61.272 422.137 63.288 424.729 63.288C426.025 63.288 427.561 62.52 428.545 61.632C430.105 60.216 431.281 57.624 431.281 54.624C431.281 52.584 430.609 50.784 429.625 49.392C428.737 48.096 427.729 47.16 426.073 46.632C425.113 46.32 424.513 46.08 424.153 45.888C423.937 45.792 423.985 47.064 424.249 47.64C424.489 48.144 424.969 48.576 425.521 48.768C426.361 49.08 427.009 49.248 427.849 49.536C428.785 49.872 429.217 50.376 429.361 51.048C429.481 51.528 429.481 52.056 429.361 52.584C428.857 52.248 428.281 52.152 427.753 52.152ZM427.129 53.16C427.465 53.16 427.921 53.232 428.329 53.568C428.569 53.76 428.737 54.096 428.713 54.744C428.497 59.328 427.153 61.584 426.289 62.016C426.073 62.136 425.833 62.208 425.545 62.208C424.633 62.208 424.009 61.08 424.033 59.376C424.033 55.56 425.593 53.736 426.265 53.4C426.601 53.232 426.841 53.16 427.129 53.16ZM442.984 52.152C442.576 52.248 441.688 52.416 440.584 52.56C438.688 52.776 435.928 52.92 434.32 52.92C434.056 52.944 433.792 53.88 433.6 54.24C434.392 54.192 435.232 54.12 436.12 54.048C435.808 55.728 434.824 58.416 433.696 60.024C432.928 61.104 432.136 61.872 431.272 62.424L431.224 62.664C431.32 62.928 431.896 63.336 432.424 63.336C432.76 63.336 433.096 63.216 433.672 62.592C435.448 60.504 436.624 56.496 437.224 53.976C438.328 53.856 439.168 53.76 439.792 53.664C439.144 56.232 438.496 58.728 438.088 60.888C437.704 62.784 438.112 63.312 438.736 63.312C439.432 63.312 441.28 62.424 442.648 60.984L442.336 60.312C441.736 60.84 440.968 61.296 440.8 61.296C440.608 61.296 440.56 61.104 440.656 60.36C440.944 58.488 441.376 56.64 441.784 54.792C442.096 53.448 442.336 53.232 442.792 52.992L443.104 52.848L442.984 52.152ZM455.594 52.392H450.17C447.626 52.392 445.418 53.16 445.418 55.464C445.418 56.664 446.21 57.672 448.01 57.984C446.21 58.416 445.586 59.256 444.914 60.456C444.482 61.2 444.17 61.656 443.81 61.944C443.402 62.28 442.97 62.352 442.538 62.448L442.418 63.144H443.354C445.49 63.144 446.45 62.64 447.05 61.632C447.626 60.648 448.082 59.784 448.634 59.016C449.018 58.44 449.594 58.224 450.026 58.224H450.458L449.882 61.08C449.57 62.496 449.714 63.288 450.554 63.288C451.466 63.288 453.362 62.136 454.37 61.008L454.058 60.36C453.458 60.84 452.666 61.296 452.45 61.296C452.282 61.272 452.234 61.056 452.426 60.264L453.434 55.104C453.77 53.4 453.986 53.304 455.426 53.112L455.594 52.392ZM450.626 57.36H450.122C448.922 57.36 447.962 56.712 447.962 55.488C447.962 54.144 448.946 53.232 450.338 53.232H450.362C451.322 53.232 451.418 53.472 451.274 54.144L450.626 57.36ZM111.68 79.056C110.48 79.056 108.992 80.016 108.032 81.144C107 82.32 106.544 83.568 106.088 85.752C105.752 85.344 105.392 85.152 104.864 85.152C104.24 85.152 103.424 85.464 102.68 85.92C100.784 87.048 98.984 89.448 98.96 92.712C98.96 94.68 99.824 96.288 101.48 96.288C102.488 96.288 103.664 95.712 104.672 94.776C104.072 98.52 103.664 99.288 103.424 99.744C103.208 100.104 102.944 100.32 102.536 100.32C102.08 100.32 101.408 99.96 100.976 99.624C100.76 99.456 100.592 99.552 100.4 99.72C100.04 99.984 99.704 100.512 99.68 100.92C99.68 101.496 100.448 102 101.192 102C101.84 102 102.824 101.592 103.832 100.656C105.344 99.264 106.16 97.896 106.688 95.472C107.024 95.904 107.504 96.288 108.104 96.288C108.944 96.288 110.312 95.568 111.272 94.704C113 93.192 113.984 90.792 113.984 88.584C113.984 86.496 113 85.152 111.512 85.152C110.72 85.152 109.76 85.488 108.32 86.592C108.368 86.16 108.416 85.872 108.584 84.984C109.232 81.072 109.76 80.424 110.312 80.424C110.72 80.424 111.08 80.616 111.608 81.144C111.872 81.408 112.136 81.408 112.4 81.168C112.688 80.928 113.024 80.448 113.024 80.04C113.048 79.584 112.544 79.056 111.68 79.056ZM104.456 86.16C104.984 86.16 105.512 86.736 105.776 87.48C105.488 89.184 105.224 90.912 104.792 93.384C104.312 94.152 103.496 95.016 102.8 95.016C102.104 95.016 101.576 94.008 101.576 92.424C101.6 88.92 102.896 86.904 103.688 86.376C103.928 86.232 104.12 86.16 104.456 86.16ZM110.24 86.4C110.84 86.4 111.392 87.264 111.392 88.92C111.416 92.016 110.192 94.608 109.256 95.04C109.064 95.112 108.824 95.16 108.632 95.16C108.056 95.16 107.408 94.464 107.144 93.672C107.48 91.632 107.792 89.808 108.104 87.936C108.56 87.36 109.52 86.4 110.24 86.4ZM126.361 93.048C125.761 93.648 124.969 94.152 124.753 94.152C124.585 94.152 124.561 93.936 124.705 93.144C125.281 90.216 125.881 87.624 126.505 85.152H126.217L123.913 85.8C123.601 87.288 123.265 88.8 122.929 90.192C122.281 91.392 120.025 94.296 118.849 94.296C118.489 94.296 118.369 93.888 118.633 92.76C119.041 91.032 119.449 89.208 119.833 87.48C120.241 85.704 120.073 85.152 119.425 85.152C118.585 85.152 116.977 86.112 115.489 87.552L115.777 88.224C116.449 87.696 117.121 87.168 117.313 87.168C117.505 87.168 117.505 87.456 117.337 88.152C116.953 89.784 116.569 91.368 116.209 92.952C115.537 95.832 116.401 96.288 117.097 96.288C117.649 96.288 118.297 96.096 118.873 95.712C119.737 95.16 121.153 93.984 122.569 92.088H122.617C122.497 92.664 122.377 93.192 122.257 93.792C121.849 95.568 122.113 96.288 122.809 96.288C123.625 96.288 125.161 95.448 126.721 93.696L126.361 93.048ZM139.04 93.336C138.368 93.912 137.672 94.344 137.456 94.344C137.288 94.344 137.24 94.08 137.408 93.312C137.84 91.032 138.68 87 139.28 85.152H139.016L136.616 85.8C136.328 86.952 136.016 88.56 135.704 89.88H132.008L132.512 87.528C132.848 85.992 132.776 85.152 132.08 85.152C131.144 85.152 129.296 86.232 128.072 87.504L128.384 88.176C128.888 87.696 129.728 87.168 129.992 87.168C130.136 87.168 130.16 87.432 129.992 88.224C129.392 90.864 128.84 93.36 128.144 96.096L128.288 96.288C129.104 96.072 129.92 95.856 130.736 95.688C131 94.392 131.456 92.424 131.792 90.912H135.464C135.248 91.944 135.008 93.12 134.816 94.128C134.552 95.52 134.792 96.288 135.464 96.288C136.208 96.288 137.984 95.496 139.304 93.984L139.04 93.336ZM151.425 92.952C150.825 93.552 149.985 94.152 149.769 94.152C149.625 94.152 149.577 93.936 149.721 93.168C150.225 90.264 150.849 87.432 151.329 85.584L151.209 85.488C150.849 85.488 150.465 85.416 149.985 85.32C149.457 85.2 148.953 85.152 148.473 85.152C146.649 85.152 144.705 86.184 143.553 87.168C141.921 88.608 140.817 91.104 140.817 93.432C140.817 95.328 141.585 96.288 142.401 96.288C143.193 96.288 144.129 95.736 144.873 95.112C145.665 94.44 146.625 93.504 147.489 92.28H147.537L147.201 93.912C146.793 95.952 147.273 96.288 147.801 96.288C148.545 96.288 150.273 95.4 151.785 93.576L151.425 92.952ZM144.105 94.344C143.769 94.344 143.553 93.912 143.553 92.904C143.553 90.744 144.393 87.816 145.953 86.688C146.289 86.424 146.721 86.28 147.225 86.28C147.753 86.28 148.377 86.448 148.689 86.616C148.569 87.36 148.161 89.28 147.849 90.384C147.297 91.536 144.969 94.344 144.105 94.344ZM164.165 93.336C163.493 93.912 162.797 94.344 162.581 94.344C162.413 94.344 162.365 94.08 162.533 93.312C162.965 91.032 163.805 87 164.405 85.152H164.141L161.741 85.8C161.453 86.952 161.141 88.56 160.829 89.88H157.133L157.637 87.528C157.973 85.992 157.901 85.152 157.205 85.152C156.269 85.152 154.421 86.232 153.197 87.504L153.509 88.176C154.013 87.696 154.853 87.168 155.117 87.168C155.261 87.168 155.285 87.432 155.117 88.224C154.517 90.864 153.965 93.36 153.269 96.096L153.413 96.288C154.229 96.072 155.045 95.856 155.861 95.688C156.125 94.392 156.581 92.424 156.917 90.912H160.589C160.373 91.944 160.133 93.12 159.941 94.128C159.677 95.52 159.917 96.288 160.589 96.288C161.333 96.288 163.109 95.496 164.429 93.984L164.165 93.336ZM173.219 92.928C172.643 93.504 171.251 94.56 170.147 94.56C169.163 94.56 168.563 93.792 168.563 92.064C168.563 90.336 168.971 88.68 169.523 87.648C169.931 86.832 170.411 86.352 171.011 86.352C171.659 86.352 172.259 86.784 172.883 87.696C173.051 87.96 173.291 87.984 173.531 87.816C174.203 87.432 174.491 86.904 174.467 86.472C174.467 85.728 173.555 85.152 172.427 85.152C171.155 85.152 169.451 86.016 168.419 86.928C166.739 88.392 165.851 90.696 165.851 92.712C165.851 95.04 166.907 96.288 168.683 96.288C170.171 96.288 172.043 95.352 173.627 93.576L173.219 92.928ZM178.683 96.288C180.123 96.288 181.611 95.64 182.643 94.752C184.371 93.288 185.211 91.032 185.211 88.944C185.211 86.616 184.011 85.152 181.779 85.152C180.843 85.152 179.787 85.488 178.827 85.992C176.955 86.976 175.227 89.28 175.227 92.424C175.227 94.296 176.019 96.288 178.683 96.288ZM179.595 95.256C178.683 95.256 177.939 94.32 177.939 92.496C177.939 88.656 179.451 86.64 180.195 86.304C180.411 86.208 180.675 86.16 180.891 86.16C181.803 86.16 182.475 87 182.499 88.872C182.499 92.16 181.323 94.704 180.267 95.136C180.051 95.208 179.883 95.256 179.595 95.256ZM193.363 89.76C194.131 89.472 194.611 89.28 195.211 88.92C195.907 88.488 196.387 87.912 196.387 87.168C196.363 85.944 195.379 85.152 193.723 85.152C192.859 85.152 192.019 85.344 190.939 85.8C189.427 86.448 188.179 87.696 187.483 89.976C187.243 90.696 187.099 91.248 186.955 91.968C186.307 95.208 187.723 96.288 190.027 96.288C191.395 96.288 192.643 95.88 193.819 95.28C195.235 94.536 196.219 93.456 196.219 92.16C196.219 90.528 194.731 89.904 193.363 89.76ZM192.763 86.136C193.219 86.136 193.795 86.496 193.795 87.456C193.795 88.296 193.171 89.088 192.067 89.568C191.299 89.904 190.435 90.144 189.883 90.24C190.219 88.608 190.771 87.048 191.779 86.424C192.115 86.208 192.379 86.136 192.763 86.136ZM191.659 90.696C192.619 90.696 193.411 91.296 193.411 92.424C193.411 94.008 192.355 95.28 190.891 95.28C189.547 95.28 189.211 94.008 189.451 92.496C189.523 91.992 189.571 91.656 189.691 91.2C190.099 90.984 190.987 90.696 191.659 90.696ZM201.792 96.288C203.232 96.288 204.72 95.64 205.752 94.752C207.48 93.288 208.32 91.032 208.32 88.944C208.32 86.616 207.12 85.152 204.888 85.152C203.952 85.152 202.896 85.488 201.936 85.992C200.064 86.976 198.336 89.28 198.336 92.424C198.336 94.296 199.128 96.288 201.792 96.288ZM202.704 95.256C201.792 95.256 201.048 94.32 201.048 92.496C201.048 88.656 202.56 86.64 203.304 86.304C203.52 86.208 203.784 86.16 204 86.16C204.912 86.16 205.584 87 205.608 88.872C205.608 92.16 204.432 94.704 203.376 95.136C203.16 95.208 202.992 95.256 202.704 95.256ZM211.617 87.96C212.217 87.384 213.153 86.688 213.993 86.688C214.689 86.688 215.121 87.192 215.121 87.84C215.121 88.68 214.497 89.376 213.321 90.024L212.025 90.768C210.537 91.608 209.481 92.4 209.481 93.816C209.481 95.064 210.393 96.288 212.337 96.288C213.945 96.288 215.529 95.424 216.729 94.176L216.273 93.48C215.529 94.128 214.593 94.704 213.609 94.704C212.769 94.704 212.097 94.128 212.097 93.24C212.097 92.256 212.841 91.68 214.113 90.936L215.217 90.312C216.633 89.472 217.713 88.848 217.689 87.384C217.665 86.112 216.657 85.152 215.193 85.152C213.369 85.152 211.929 86.472 211.209 87.24L211.617 87.96ZM222.206 96.288C223.646 96.288 225.134 95.64 226.166 94.752C227.894 93.288 228.734 91.032 228.734 88.944C228.734 86.616 227.534 85.152 225.302 85.152C224.366 85.152 223.31 85.488 222.35 85.992C220.478 86.976 218.75 89.28 218.75 92.424C218.75 94.296 219.542 96.288 222.206 96.288ZM223.118 95.256C222.206 95.256 221.462 94.32 221.462 92.496C221.462 88.656 222.974 86.64 223.718 86.304C223.934 86.208 224.198 86.16 224.414 86.16C225.326 86.16 225.998 87 226.022 88.872C226.022 92.16 224.846 94.704 223.79 95.136C223.574 95.208 223.406 95.256 223.118 95.256ZM239.103 86.664C239.343 85.296 239.847 84.288 240.447 83.616C241.047 82.968 241.887 82.632 243.255 82.488C244.143 82.368 245.007 82.2 245.751 81.888C246.879 81.408 247.431 80.064 247.575 79.104C247.599 78.912 247.407 78.816 247.215 79.032C246.855 79.44 246.039 79.704 244.887 80.016C244.023 80.256 243.399 80.52 242.631 80.88C241.671 81.336 240.543 82.152 239.367 83.352C237.159 85.608 235.839 88.68 235.839 91.824C235.839 94.176 236.727 96.288 239.391 96.288C240.591 96.288 242.055 95.64 243.087 94.728C244.719 93.312 245.727 91.08 245.727 88.896C245.727 86.664 244.671 85.152 242.727 85.152C241.623 85.152 240.351 85.728 239.175 86.712L239.103 86.664ZM241.527 86.352C242.439 86.352 243.015 87.144 243.015 88.92C243.039 92.232 241.671 94.584 240.855 94.992C240.591 95.136 240.399 95.184 240.111 95.184C239.127 95.184 238.503 93.96 238.503 92.064C238.527 90.24 238.911 88.848 239.271 88.056C239.775 87.144 240.711 86.352 241.527 86.352ZM257.452 85.152C257.044 85.248 256.156 85.416 255.052 85.56C253.156 85.776 250.396 85.92 248.788 85.92C248.524 85.944 248.26 86.88 248.068 87.24C248.86 87.192 249.7 87.12 250.588 87.048C250.276 88.728 249.292 91.416 248.164 93.024C247.396 94.104 246.604 94.872 245.74 95.424L245.692 95.664C245.788 95.928 246.364 96.336 246.892 96.336C247.228 96.336 247.564 96.216 248.14 95.592C249.916 93.504 251.092 89.496 251.692 86.976C252.796 86.856 253.636 86.76 254.26 86.664C253.612 89.232 252.964 91.728 252.556 93.888C252.172 95.784 252.58 96.312 253.204 96.312C253.9 96.312 255.748 95.424 257.116 93.984L256.804 93.312C256.204 93.84 255.436 94.296 255.268 94.296C255.076 94.296 255.028 94.104 255.124 93.36C255.412 91.488 255.844 89.64 256.252 87.792C256.564 86.448 256.804 86.232 257.26 85.992L257.572 85.848L257.452 85.152ZM269.151 92.952C268.551 93.552 267.711 94.152 267.495 94.152C267.351 94.152 267.303 93.936 267.447 93.168C267.951 90.264 268.575 87.432 269.055 85.584L268.935 85.488C268.575 85.488 268.191 85.416 267.711 85.32C267.183 85.2 266.679 85.152 266.199 85.152C264.375 85.152 262.431 86.184 261.279 87.168C259.647 88.608 258.543 91.104 258.543 93.432C258.543 95.328 259.311 96.288 260.127 96.288C260.919 96.288 261.855 95.736 262.599 95.112C263.391 94.44 264.351 93.504 265.215 92.28H265.263L264.927 93.912C264.519 95.952 264.999 96.288 265.527 96.288C266.271 96.288 267.999 95.4 269.511 93.576L269.151 92.952ZM261.831 94.344C261.495 94.344 261.279 93.912 261.279 92.904C261.279 90.744 262.119 87.816 263.679 86.688C264.015 86.424 264.447 86.28 264.951 86.28C265.479 86.28 266.103 86.448 266.415 86.616C266.295 87.36 265.887 89.28 265.575 90.384C265.023 91.536 262.695 94.344 261.831 94.344ZM272.578 87.96C273.178 87.384 274.114 86.688 274.954 86.688C275.65 86.688 276.082 87.192 276.082 87.84C276.082 88.68 275.458 89.376 274.282 90.024L272.986 90.768C271.498 91.608 270.442 92.4 270.442 93.816C270.442 95.064 271.354 96.288 273.298 96.288C274.906 96.288 276.49 95.424 277.69 94.176L277.234 93.48C276.49 94.128 275.554 94.704 274.57 94.704C273.73 94.704 273.058 94.128 273.058 93.24C273.058 92.256 273.802 91.68 275.074 90.936L276.178 90.312C277.594 89.472 278.674 88.848 278.65 87.384C278.626 86.112 277.618 85.152 276.154 85.152C274.33 85.152 272.89 86.472 272.17 87.24L272.578 87.96ZM283.167 96.288C284.607 96.288 286.095 95.64 287.127 94.752C288.855 93.288 289.695 91.032 289.695 88.944C289.695 86.616 288.495 85.152 286.263 85.152C285.327 85.152 284.271 85.488 283.311 85.992C281.439 86.976 279.711 89.28 279.711 92.424C279.711 94.296 280.503 96.288 283.167 96.288ZM284.079 95.256C283.167 95.256 282.423 94.32 282.423 92.496C282.423 88.656 283.935 86.64 284.679 86.304C284.895 86.208 285.159 86.16 285.375 86.16C286.287 86.16 286.959 87 286.983 88.872C286.983 92.16 285.807 94.704 284.751 95.136C284.535 95.208 284.367 95.256 284.079 95.256ZM302.21 93.144C301.61 93.72 300.914 94.176 300.722 94.176C300.53 94.176 300.506 93.912 300.65 93.312C301.01 91.776 301.346 90.24 301.706 88.752C302.426 85.56 301.706 85.152 300.962 85.152C300.434 85.152 299.786 85.392 299.114 85.824C298.082 86.52 296.618 87.768 295.298 89.568H295.25L295.61 88.056C296.09 85.896 295.85 85.152 295.226 85.152C294.41 85.152 292.922 85.992 291.386 87.552L291.722 88.224C292.25 87.696 293.042 87.216 293.258 87.216C293.426 87.216 293.45 87.408 293.282 88.152C292.682 90.888 292.034 93.576 291.434 96.072L291.602 96.288C292.226 96.072 293.162 95.88 293.978 95.784C294.266 94.272 294.626 92.664 294.962 91.416C295.922 89.712 298.322 87.048 299.21 87.048C299.522 87.048 299.642 87.36 299.33 88.632C298.946 90.336 298.538 92.04 298.13 93.744C297.674 95.736 298.082 96.288 298.73 96.288C299.498 96.288 300.914 95.568 302.594 93.816L302.21 93.144ZM307.659 96.288C309.099 96.288 310.587 95.64 311.619 94.752C313.347 93.288 314.187 91.032 314.187 88.944C314.187 86.616 312.987 85.152 310.755 85.152C309.819 85.152 308.763 85.488 307.803 85.992C305.931 86.976 304.203 89.28 304.203 92.424C304.203 94.296 304.995 96.288 307.659 96.288ZM308.571 95.256C307.659 95.256 306.915 94.32 306.915 92.496C306.915 88.656 308.427 86.64 309.171 86.304C309.387 86.208 309.651 86.16 309.867 86.16C310.779 86.16 311.451 87 311.475 88.872C311.475 92.16 310.299 94.704 309.243 95.136C309.027 95.208 308.859 95.256 308.571 95.256ZM326.007 85.152C325.599 85.248 324.711 85.416 323.607 85.56C321.711 85.776 318.951 85.92 317.343 85.92C317.079 85.944 316.815 86.88 316.623 87.24C317.415 87.192 318.255 87.12 319.143 87.048C318.831 88.728 317.847 91.416 316.719 93.024C315.951 94.104 315.159 94.872 314.295 95.424L314.247 95.664C314.343 95.928 314.919 96.336 315.447 96.336C315.783 96.336 316.119 96.216 316.695 95.592C318.471 93.504 319.647 89.496 320.247 86.976C321.351 86.856 322.191 86.76 322.815 86.664C322.167 89.232 321.519 91.728 321.111 93.888C320.727 95.784 321.135 96.312 321.759 96.312C322.455 96.312 324.303 95.424 325.671 93.984L325.359 93.312C324.759 93.84 323.991 94.296 323.823 94.296C323.631 94.296 323.583 94.104 323.679 93.36C323.967 91.488 324.399 89.64 324.807 87.792C325.119 86.448 325.359 86.232 325.815 85.992L326.127 85.848L326.007 85.152ZM332.264 93.672C332.144 91.872 331.856 89.688 331.544 87.864C331.232 85.992 330.8 85.128 330.08 85.128C329.12 85.128 327.752 86.472 326.888 87.864L327.344 88.464C328.016 87.624 328.352 87.264 328.592 87.264C328.808 87.264 328.952 87.72 329.192 88.608C329.504 89.736 330.224 94.2 330.224 96.48C329.432 97.68 328.736 98.352 327.968 98.904C327.176 99.528 326.36 99.72 325.52 99.744C325.16 99.744 324.872 100.008 324.872 100.536C324.872 101.304 325.472 101.976 326.048 101.976C326.744 101.976 327.512 101.376 328.664 100.032C330.128 98.352 330.992 97.2 332.096 95.592C333.392 93.696 334.976 91.248 336.104 89.232C336.728 88.128 337.016 87.288 336.992 86.592C336.968 85.608 336.392 85.128 335.84 85.128C335.096 85.128 334.472 85.872 334.616 86.496C334.712 86.784 334.88 87.192 334.88 87.768C334.88 89.592 333.272 92.208 332.312 93.696L332.264 93.672ZM348.907 93.36C348.355 93.864 347.539 94.32 347.323 94.32C347.155 94.32 347.107 94.08 347.275 93.432C347.923 90.6 348.571 87.936 349.219 85.152H348.979L346.579 85.8C346.291 87.192 346.195 87.504 346.003 88.032C345.571 89.04 343.555 90.96 342.691 90.96C342.259 90.96 342.019 90.672 342.331 89.376L342.931 87.048C343.243 85.8 343.099 85.152 342.379 85.152C341.347 85.152 339.667 86.208 338.323 87.504L338.659 88.2C339.283 87.648 340.003 87.192 340.219 87.192C340.339 87.312 340.411 87.408 340.243 88.08L339.715 90.144C339.235 92.04 340.099 92.52 341.011 92.52C342.235 92.52 343.891 91.68 345.619 89.832H345.667L344.683 93.912C344.251 95.664 344.587 96.288 345.259 96.288C346.003 96.288 347.875 95.448 349.243 94.032L348.907 93.36ZM361.65 93.048C361.05 93.648 360.258 94.152 360.042 94.152C359.874 94.152 359.85 93.936 359.994 93.144C360.57 90.216 361.17 87.624 361.794 85.152H361.506L359.202 85.8C358.89 87.288 358.554 88.8 358.218 90.192C357.57 91.392 355.314 94.296 354.138 94.296C353.778 94.296 353.658 93.888 353.922 92.76C354.33 91.032 354.738 89.208 355.122 87.48C355.53 85.704 355.362 85.152 354.714 85.152C353.874 85.152 352.266 86.112 350.778 87.552L351.066 88.224C351.738 87.696 352.41 87.168 352.602 87.168C352.794 87.168 352.794 87.456 352.626 88.152C352.242 89.784 351.858 91.368 351.498 92.952C350.826 95.832 351.69 96.288 352.386 96.288C352.938 96.288 353.586 96.096 354.162 95.712C355.026 95.16 356.442 93.984 357.858 92.088H357.906C357.786 92.664 357.666 93.192 357.546 93.792C357.138 95.568 357.402 96.288 358.098 96.288C358.914 96.288 360.45 95.448 362.01 93.696L361.65 93.048ZM374.923 85.392H369.499C366.955 85.392 364.747 86.16 364.747 88.464C364.747 89.664 365.539 90.672 367.339 90.984C365.539 91.416 364.915 92.256 364.243 93.456C363.811 94.2 363.499 94.656 363.139 94.944C362.731 95.28 362.298 95.352 361.866 95.448L361.746 96.144H362.683C364.819 96.144 365.779 95.64 366.379 94.632C366.955 93.648 367.411 92.784 367.963 92.016C368.347 91.44 368.923 91.224 369.355 91.224H369.787L369.211 94.08C368.898 95.496 369.043 96.288 369.883 96.288C370.795 96.288 372.691 95.136 373.699 94.008L373.387 93.36C372.787 93.84 371.995 94.296 371.779 94.296C371.611 94.272 371.563 94.056 371.755 93.264L372.763 88.104C373.099 86.4 373.315 86.304 374.755 86.112L374.923 85.392ZM369.955 90.36H369.451C368.251 90.36 367.291 89.712 367.291 88.488C367.291 87.144 368.275 86.232 369.667 86.232H369.691C370.651 86.232 370.747 86.472 370.603 87.144L369.955 90.36ZM374.589 98.88C376.557 98.376 378.549 97.128 378.597 94.944C378.621 93.696 377.853 92.472 376.629 92.472C375.933 92.472 375.237 93.024 375.213 93.888C375.213 94.104 375.309 94.248 375.501 94.32C376.245 94.512 376.653 94.968 376.653 95.736C376.629 96.72 375.669 97.56 374.301 98.112L374.589 98.88ZM397.259 93.36C396.707 93.864 395.891 94.32 395.675 94.32C395.507 94.32 395.459 94.08 395.627 93.432C396.275 90.6 396.923 87.936 397.571 85.152H397.331L394.931 85.8C394.643 87.192 394.547 87.504 394.355 88.032C393.923 89.04 391.907 90.96 391.043 90.96C390.611 90.96 390.371 90.672 390.683 89.376L391.283 87.048C391.595 85.8 391.451 85.152 390.731 85.152C389.699 85.152 388.019 86.208 386.675 87.504L387.011 88.2C387.635 87.648 388.355 87.192 388.571 87.192C388.691 87.312 388.763 87.408 388.595 88.08L388.067 90.144C387.587 92.04 388.451 92.52 389.363 92.52C390.587 92.52 392.243 91.68 393.971 89.832H394.019L393.035 93.912C392.603 95.664 392.939 96.288 393.611 96.288C394.355 96.288 396.227 95.448 397.595 94.032L397.259 93.36ZM406.83 92.76C405.678 93.864 404.334 94.56 403.374 94.56C402.054 94.56 401.622 93.384 401.622 92.136C401.622 91.944 401.622 91.728 401.646 91.44C404.022 90.816 407.886 89.592 407.886 87.168C407.886 86.088 407.07 85.152 405.534 85.152C404.334 85.152 402.822 85.848 401.838 86.616C400.014 88.032 399.006 90.48 399.006 92.712C399.006 95.568 400.542 96.288 401.838 96.288C403.326 96.288 405.15 95.64 407.286 93.384L406.83 92.76ZM404.55 86.208C404.982 86.208 405.558 86.592 405.558 87.504C405.558 88.728 404.622 89.76 401.742 90.6C402.102 88.08 403.134 86.832 403.71 86.472C403.95 86.304 404.286 86.208 404.55 86.208ZM422.786 93.36C422.234 93.816 421.418 94.32 421.226 94.32C421.082 94.32 420.986 94.152 421.106 93.432C421.394 91.224 421.754 89.208 422.21 87.192C422.426 86.328 422.714 86.088 423.602 85.656L423.458 84.984C422.114 85.248 420.338 85.872 419.762 86.28C418.466 88.104 417.122 90.432 416.042 92.136C415.874 91.128 415.634 89.712 415.274 87.912C414.866 85.752 414.554 85.152 413.882 85.152C412.826 85.152 411.074 86.256 409.922 87.504L410.21 88.2C410.882 87.552 411.818 86.952 412.01 86.952C412.178 86.952 412.25 87.072 412.13 87.648C411.722 89.664 411.242 91.2 410.738 92.328C410.234 93.408 409.418 94.512 408.17 95.04C408.026 95.112 407.93 95.208 407.906 95.4C408.002 95.976 408.554 96.312 408.962 96.312C409.322 96.312 409.73 96.192 410.234 95.616C411.938 93.768 412.562 89.88 412.994 87.408H413.042C413.402 89.568 413.786 92.928 414.242 96.12L414.938 95.976C416.81 92.688 418.562 89.616 419.954 87.504H420.026C419.498 89.76 419.018 91.992 418.634 93.888C418.274 95.688 418.682 96.288 419.282 96.288C420.338 96.288 422.042 95.16 423.122 94.032L422.786 93.36ZM440.936 93.144C440.336 93.72 439.64 94.176 439.448 94.176C439.256 94.176 439.232 93.912 439.376 93.312C439.736 91.776 440.072 90.24 440.432 88.752C441.152 85.56 440.432 85.152 439.688 85.152C439.16 85.152 438.512 85.392 437.84 85.824C436.808 86.52 435.344 87.768 434.024 89.568H433.976L434.336 88.056C434.816 85.896 434.576 85.152 433.952 85.152C433.136 85.152 431.648 85.992 430.112 87.552L430.448 88.224C430.976 87.696 431.768 87.216 431.984 87.216C432.152 87.216 432.176 87.408 432.008 88.152C431.408 90.888 430.76 93.576 430.16 96.072L430.328 96.288C430.952 96.072 431.888 95.88 432.704 95.784C432.992 94.272 433.352 92.664 433.688 91.416C434.648 89.712 437.048 87.048 437.936 87.048C438.248 87.048 438.368 87.36 438.056 88.632C437.672 90.336 437.264 92.04 436.856 93.744C436.4 95.736 436.808 96.288 437.456 96.288C438.224 96.288 439.64 95.568 441.32 93.816L440.936 93.144ZM447.881 83.544L447.617 83.376C446.849 83.736 445.721 84.456 445.193 85.008L444.929 86.064C444.161 86.376 443.345 86.736 442.601 87.24L442.817 87.936C443.345 87.648 443.969 87.36 444.713 87.12C443.897 91.056 443.057 95.064 442.193 99.168C441.881 100.608 441.569 100.872 440.153 101.16L439.985 101.88L446.177 101.592L446.297 100.848L445.745 100.8C444.569 100.656 444.401 100.44 444.641 99.192L445.241 96.072C445.721 96.24 446.129 96.288 446.537 96.288C448.169 95.904 449.969 94.824 451.145 93.504C452.489 92.016 453.161 90.144 453.161 88.656C453.161 86.4 452.153 85.152 449.633 85.152C448.913 85.152 448.193 85.224 447.449 85.44L447.881 83.544ZM447.209 86.496C447.569 86.4 447.953 86.328 448.337 86.328C449.465 86.328 450.449 86.832 450.449 88.848C450.449 91.872 448.385 95.184 446.921 95.184C446.441 95.208 445.865 94.752 445.625 94.416L447.209 86.496ZM465.525 93.048C464.925 93.648 464.133 94.152 463.917 94.152C463.749 94.152 463.725 93.936 463.869 93.144C464.445 90.216 465.045 87.624 465.669 85.152H465.381L463.077 85.8C462.765 87.288 462.429 88.8 462.093 90.192C461.445 91.392 459.189 94.296 458.013 94.296C457.653 94.296 457.533 93.888 457.797 92.76C458.205 91.032 458.613 89.208 458.997 87.48C459.405 85.704 459.237 85.152 458.589 85.152C457.749 85.152 456.141 86.112 454.653 87.552L454.941 88.224C455.613 87.696 456.285 87.168 456.477 87.168C456.669 87.168 456.669 87.456 456.501 88.152C456.117 89.784 455.733 91.368 455.373 92.952C454.701 95.832 455.565 96.288 456.261 96.288C456.813 96.288 457.461 96.096 458.037 95.712C458.901 95.16 460.317 93.984 461.733 92.088H461.781C461.661 92.664 461.541 93.192 461.421 93.792C461.013 95.568 461.277 96.288 461.973 96.288C462.789 96.288 464.325 95.448 465.885 93.696L465.525 93.048ZM473.667 85.152C472.995 85.152 471.747 85.512 470.739 86.064C469.035 87 467.235 89.208 467.235 92.4C467.235 94.272 468.051 96.288 470.643 96.288C471.939 96.288 473.475 95.52 474.459 94.632C476.019 93.216 477.195 90.624 477.195 87.624C477.195 85.584 476.523 83.784 475.539 82.392C474.651 81.096 473.643 80.16 471.987 79.632C471.027 79.32 470.427 79.08 470.067 78.888C469.851 78.792 469.899 80.064 470.163 80.64C470.403 81.144 470.883 81.576 471.435 81.768C472.275 82.08 472.923 82.248 473.763 82.536C474.699 82.872 475.131 83.376 475.275 84.048C475.395 84.528 475.395 85.056 475.275 85.584C474.771 85.248 474.195 85.152 473.667 85.152ZM473.043 86.16C473.379 86.16 473.835 86.232 474.243 86.568C474.483 86.76 474.651 87.096 474.627 87.744C474.411 92.328 473.067 94.584 472.203 95.016C471.987 95.136 471.747 95.208 471.459 95.208C470.547 95.208 469.923 94.08 469.947 92.376C469.947 88.56 471.507 86.736 472.179 86.4C472.515 86.232 472.755 86.16 473.043 86.16ZM484.092 93.672C483.972 91.872 483.684 89.688 483.372 87.864C483.06 85.992 482.628 85.128 481.908 85.128C480.948 85.128 479.58 86.472 478.716 87.864L479.172 88.464C479.844 87.624 480.18 87.264 480.42 87.264C480.636 87.264 480.78 87.72 481.02 88.608C481.332 89.736 482.052 94.2 482.052 96.48C481.26 97.68 480.564 98.352 479.796 98.904C479.004 99.528 478.188 99.72 477.348 99.744C476.988 99.744 476.7 100.008 476.7 100.536C476.7 101.304 477.3 101.976 477.876 101.976C478.572 101.976 479.34 101.376 480.492 100.032C481.956 98.352 482.82 97.2 483.924 95.592C485.22 93.696 486.804 91.248 487.932 89.232C488.556 88.128 488.844 87.288 488.82 86.592C488.796 85.608 488.22 85.128 487.668 85.128C486.924 85.128 486.3 85.872 486.444 86.496C486.54 86.784 486.708 87.192 486.708 87.768C486.708 89.592 485.1 92.208 484.14 93.696L484.092 93.672ZM503.481 93.36C502.929 93.816 502.113 94.32 501.921 94.32C501.777 94.32 501.681 94.152 501.801 93.432C502.089 91.224 502.449 89.208 502.905 87.192C503.121 86.328 503.409 86.088 504.297 85.656L504.153 84.984C502.809 85.248 501.033 85.872 500.457 86.28C499.161 88.104 497.817 90.432 496.737 92.136C496.569 91.128 496.329 89.712 495.969 87.912C495.561 85.752 495.249 85.152 494.577 85.152C493.521 85.152 491.769 86.256 490.617 87.504L490.905 88.2C491.577 87.552 492.513 86.952 492.705 86.952C492.873 86.952 492.945 87.072 492.825 87.648C492.417 89.664 491.937 91.2 491.433 92.328C490.929 93.408 490.113 94.512 488.865 95.04C488.721 95.112 488.625 95.208 488.601 95.4C488.697 95.976 489.249 96.312 489.657 96.312C490.017 96.312 490.425 96.192 490.929 95.616C492.633 93.768 493.257 89.88 493.689 87.408H493.737C494.097 89.568 494.481 92.928 494.937 96.12L495.633 95.976C497.505 92.688 499.257 89.616 500.649 87.504H500.721C500.193 89.76 499.713 91.992 499.329 93.888C498.969 95.688 499.377 96.288 499.977 96.288C501.033 96.288 502.737 95.16 503.817 94.032L503.481 93.36ZM515.901 92.952C515.301 93.552 514.461 94.152 514.245 94.152C514.101 94.152 514.053 93.936 514.197 93.168C514.701 90.264 515.325 87.432 515.805 85.584L515.685 85.488C515.325 85.488 514.941 85.416 514.461 85.32C513.933 85.2 513.429 85.152 512.949 85.152C511.125 85.152 509.181 86.184 508.029 87.168C506.397 88.608 505.293 91.104 505.293 93.432C505.293 95.328 506.061 96.288 506.877 96.288C507.669 96.288 508.605 95.736 509.349 95.112C510.141 94.44 511.101 93.504 511.965 92.28H512.013L511.677 93.912C511.269 95.952 511.749 96.288 512.277 96.288C513.021 96.288 514.749 95.4 516.261 93.576L515.901 92.952ZM508.581 94.344C508.245 94.344 508.029 93.912 508.029 92.904C508.029 90.744 508.869 87.816 510.429 86.688C510.765 86.424 511.197 86.28 511.701 86.28C512.229 86.28 512.853 86.448 513.165 86.616C513.045 87.36 512.637 89.28 512.325 90.384C511.773 91.536 509.445 94.344 508.581 94.344ZM534.594 93.168C534.042 93.696 533.298 94.2 533.082 94.2C532.938 94.2 532.866 94.032 533.01 93.432L534.09 88.728C534.858 85.488 533.994 85.152 533.394 85.152C532.914 85.152 532.458 85.296 531.834 85.656C530.946 86.16 529.458 87.312 527.85 89.448H527.802L527.97 88.704C528.642 85.584 527.874 85.152 527.202 85.152C526.698 85.152 526.194 85.32 525.594 85.68C524.778 86.16 523.242 87.36 521.634 89.544H521.586L521.946 88.008C522.426 86.04 522.33 85.152 521.586 85.152C520.77 85.152 519.234 86.064 517.746 87.6L518.058 88.248C518.562 87.792 519.354 87.216 519.618 87.216C519.762 87.24 519.81 87.432 519.642 88.128C519.042 90.864 518.442 93.432 517.722 96.072L517.914 96.288C518.586 96.072 519.474 95.88 520.29 95.808C520.602 94.272 520.986 92.544 521.346 91.368C522.066 89.928 524.538 87.048 525.474 87.048C525.858 87.048 525.882 87.6 525.57 89.064C525.066 91.32 524.49 93.672 523.914 96.072L524.082 96.288C524.73 96.072 525.642 95.88 526.506 95.808C526.794 94.296 527.154 92.664 527.466 91.344C528.306 89.808 530.73 87.048 531.618 87.048C531.906 87.048 532.002 87.48 531.762 88.464L530.49 93.864C530.058 95.712 530.394 96.288 531.09 96.288C531.81 96.288 533.466 95.472 534.93 93.816L534.594 93.168ZM540.215 90.216L540.887 87.48C541.271 85.992 541.199 85.152 540.479 85.152C539.399 85.152 537.599 86.376 536.519 87.432L536.831 88.128C537.383 87.696 538.151 87.216 538.391 87.216C538.535 87.216 538.559 87.48 538.391 88.152L537.239 92.856C536.999 93.888 536.999 94.536 537.239 95.088C537.599 95.88 538.415 96.288 539.567 96.288C540.695 96.288 542.087 95.928 543.383 95.088C545.063 94.032 546.383 92.304 546.359 90.216C546.359 88.92 545.687 87.984 544.463 87.984C543.239 87.984 541.631 88.896 540.263 90.216H540.215ZM542.903 89.52C543.359 89.52 543.695 89.928 543.695 90.792C543.671 92.64 542.687 94.32 541.871 94.872C541.487 95.112 541.103 95.256 540.695 95.256C539.927 95.256 539.351 94.512 539.615 93.12C539.831 92.04 539.975 91.608 540.623 90.864C541.607 89.856 542.447 89.52 542.903 89.52ZM102.464 129.288C103.904 129.288 105.392 128.64 106.424 127.752C108.152 126.288 108.992 124.032 108.992 121.944C108.992 119.616 107.792 118.152 105.56 118.152C104.624 118.152 103.568 118.488 102.608 118.992C100.736 119.976 99.008 122.28 99.008 125.424C99.008 127.296 99.8 129.288 102.464 129.288ZM103.376 128.256C102.464 128.256 101.72 127.32 101.72 125.496C101.72 121.656 103.232 119.64 103.976 119.304C104.192 119.208 104.456 119.16 104.672 119.16C105.584 119.16 106.256 120 106.28 121.872C106.28 125.16 105.104 127.704 104.048 128.136C103.832 128.208 103.664 128.256 103.376 128.256ZM127.555 126.168C127.003 126.696 126.259 127.2 126.043 127.2C125.899 127.2 125.827 127.032 125.971 126.432L127.051 121.728C127.819 118.488 126.955 118.152 126.355 118.152C125.875 118.152 125.419 118.296 124.795 118.656C123.907 119.16 122.419 120.312 120.811 122.448H120.763L120.931 121.704C121.603 118.584 120.835 118.152 120.163 118.152C119.659 118.152 119.155 118.32 118.555 118.68C117.739 119.16 116.203 120.36 114.595 122.544H114.547L114.907 121.008C115.387 119.04 115.291 118.152 114.547 118.152C113.731 118.152 112.195 119.064 110.707 120.6L111.019 121.248C111.523 120.792 112.315 120.216 112.579 120.216C112.723 120.24 112.771 120.432 112.603 121.128C112.003 123.864 111.403 126.432 110.683 129.072L110.875 129.288C111.547 129.072 112.435 128.88 113.251 128.808C113.563 127.272 113.947 125.544 114.307 124.368C115.027 122.928 117.499 120.048 118.435 120.048C118.819 120.048 118.843 120.6 118.531 122.064C118.027 124.32 117.451 126.672 116.875 129.072L117.043 129.288C117.691 129.072 118.603 128.88 119.467 128.808C119.755 127.296 120.115 125.664 120.427 124.344C121.267 122.808 123.691 120.048 124.579 120.048C124.867 120.048 124.963 120.48 124.723 121.464L123.451 126.864C123.019 128.712 123.355 129.288 124.051 129.288C124.771 129.288 126.427 128.472 127.891 126.816L127.555 126.168ZM140.148 118.152C139.74 118.248 138.852 118.416 137.748 118.56C135.852 118.776 133.092 118.92 131.484 118.92C131.22 118.944 130.956 119.88 130.764 120.24C131.556 120.192 132.396 120.12 133.284 120.048C132.972 121.728 131.988 124.416 130.86 126.024C130.092 127.104 129.3 127.872 128.436 128.424L128.388 128.664C128.484 128.928 129.06 129.336 129.588 129.336C129.924 129.336 130.26 129.216 130.836 128.592C132.612 126.504 133.788 122.496 134.388 119.976C135.492 119.856 136.332 119.76 136.956 119.664C136.308 122.232 135.66 124.728 135.252 126.888C134.868 128.784 135.276 129.312 135.9 129.312C136.596 129.312 138.444 128.424 139.812 126.984L139.5 126.312C138.9 126.84 138.132 127.296 137.964 127.296C137.772 127.296 137.724 127.104 137.82 126.36C138.108 124.488 138.54 122.64 138.948 120.792C139.26 119.448 139.5 119.232 139.956 118.992L140.268 118.848L140.148 118.152ZM152.119 126.048C151.519 126.648 150.727 127.152 150.511 127.152C150.343 127.152 150.319 126.936 150.463 126.144C151.039 123.216 151.639 120.624 152.263 118.152H151.975L149.671 118.8C149.359 120.288 149.023 121.8 148.687 123.192C148.039 124.392 145.783 127.296 144.607 127.296C144.247 127.296 144.127 126.888 144.391 125.76C144.799 124.032 145.207 122.208 145.591 120.48C145.999 118.704 145.831 118.152 145.183 118.152C144.343 118.152 142.735 119.112 141.247 120.552L141.535 121.224C142.207 120.696 142.879 120.168 143.071 120.168C143.263 120.168 143.263 120.456 143.095 121.152C142.711 122.784 142.327 124.368 141.967 125.952C141.295 128.832 142.159 129.288 142.855 129.288C143.407 129.288 144.055 129.096 144.631 128.712C145.495 128.16 146.911 126.984 148.327 125.088H148.375C148.255 125.664 148.135 126.192 148.015 126.792C147.607 128.568 147.871 129.288 148.567 129.288C149.383 129.288 150.919 128.448 152.479 126.696L152.119 126.048ZM164.149 126.36C163.597 126.864 162.781 127.32 162.565 127.32C162.397 127.32 162.349 127.08 162.517 126.432C163.165 123.6 163.813 120.936 164.461 118.152H164.221L161.821 118.8C161.533 120.192 161.437 120.504 161.245 121.032C160.813 122.04 158.797 123.96 157.933 123.96C157.501 123.96 157.261 123.672 157.573 122.376L158.173 120.048C158.485 118.8 158.341 118.152 157.621 118.152C156.589 118.152 154.909 119.208 153.565 120.504L153.901 121.2C154.525 120.648 155.245 120.192 155.461 120.192C155.581 120.312 155.653 120.408 155.485 121.08L154.957 123.144C154.477 125.04 155.341 125.52 156.253 125.52C157.477 125.52 159.133 124.68 160.861 122.832H160.909L159.925 126.912C159.493 128.664 159.829 129.288 160.501 129.288C161.245 129.288 163.117 128.448 164.485 127.032L164.149 126.36ZM176.939 126.336C176.267 126.912 175.571 127.344 175.355 127.344C175.187 127.344 175.139 127.08 175.307 126.312C175.739 124.032 176.579 120 177.179 118.152H176.915L174.515 118.8C174.227 119.952 173.915 121.56 173.603 122.88H169.907L170.411 120.528C170.747 118.992 170.675 118.152 169.979 118.152C169.043 118.152 167.195 119.232 165.971 120.504L166.283 121.176C166.787 120.696 167.627 120.168 167.891 120.168C168.035 120.168 168.059 120.432 167.891 121.224C167.291 123.864 166.739 126.36 166.043 129.096L166.187 129.288C167.003 129.072 167.819 128.856 168.635 128.688C168.899 127.392 169.355 125.424 169.691 123.912H173.363C173.147 124.944 172.907 126.12 172.715 127.128C172.451 128.52 172.691 129.288 173.363 129.288C174.107 129.288 175.883 128.496 177.203 126.984L176.939 126.336ZM183.881 126.672C183.761 124.872 183.473 122.688 183.161 120.864C182.849 118.992 182.417 118.128 181.697 118.128C180.737 118.128 179.369 119.472 178.505 120.864L178.961 121.464C179.633 120.624 179.969 120.264 180.209 120.264C180.425 120.264 180.569 120.72 180.809 121.608C181.121 122.736 181.841 127.2 181.841 129.48C181.049 130.68 180.353 131.352 179.585 131.904C178.793 132.528 177.977 132.72 177.137 132.744C176.777 132.744 176.489 133.008 176.489 133.536C176.489 134.304 177.089 134.976 177.665 134.976C178.361 134.976 179.129 134.376 180.281 133.032C181.745 131.352 182.609 130.2 183.713 128.592C185.009 126.696 186.593 124.248 187.721 122.232C188.345 121.128 188.633 120.288 188.609 119.592C188.585 118.608 188.009 118.128 187.457 118.128C186.713 118.128 186.089 118.872 186.233 119.496C186.329 119.784 186.497 120.192 186.497 120.768C186.497 122.592 184.889 125.208 183.929 126.696L183.881 126.672ZM190.493 129.288L192.869 128.64C193.061 127.632 193.589 125.376 193.925 123.936H195.869C195.773 124.416 195.749 124.872 195.749 125.424C195.749 127.224 196.445 129.288 199.181 129.288C200.525 129.288 201.917 128.64 202.925 127.752C204.629 126.336 205.469 124.008 205.469 121.992C205.469 119.616 204.245 118.152 202.085 118.152C201.173 118.152 200.261 118.464 199.325 118.968C197.957 119.688 196.709 121.056 196.133 122.904H194.141C194.333 122.136 194.501 121.32 194.693 120.504C195.029 118.944 194.861 118.152 194.189 118.152C193.349 118.152 191.597 119.16 190.325 120.336L190.637 121.008C191.165 120.6 191.909 120.12 192.125 120.12C192.293 120.12 192.317 120.384 192.125 121.248C191.501 123.936 190.949 126.528 190.277 129.168L190.493 129.288ZM201.365 119.208C202.181 119.208 202.733 119.976 202.757 121.752C202.757 125.208 201.533 127.632 200.549 128.064C200.309 128.184 200.189 128.232 199.901 128.232C198.941 128.232 198.461 127.2 198.461 125.592C198.461 121.944 199.829 119.784 200.693 119.352C200.909 119.256 201.125 119.208 201.365 119.208ZM223.51 126.048C222.91 126.648 222.118 127.152 221.902 127.152C221.734 127.152 221.71 126.936 221.854 126.144C222.43 123.216 223.03 120.624 223.654 118.152H223.366L221.062 118.8C220.75 120.288 220.414 121.8 220.078 123.192C219.43 124.392 217.174 127.296 215.998 127.296C215.638 127.296 215.518 126.888 215.782 125.76C216.19 124.032 216.598 122.208 216.982 120.48C217.39 118.704 217.222 118.152 216.574 118.152C215.734 118.152 214.126 119.112 212.638 120.552L212.926 121.224C213.598 120.696 214.27 120.168 214.462 120.168C214.654 120.168 214.654 120.456 214.486 121.152C214.102 122.784 213.718 124.368 213.358 125.952C212.686 128.832 213.55 129.288 214.246 129.288C214.798 129.288 215.446 129.096 216.022 128.712C216.886 128.16 218.302 126.984 219.718 125.088H219.766C219.646 125.664 219.526 126.192 219.406 126.792C218.998 128.568 219.262 129.288 219.958 129.288C220.774 129.288 222.31 128.448 223.87 126.696L223.51 126.048ZM231.651 118.152C230.979 118.152 229.731 118.512 228.723 119.064C227.019 120 225.219 122.208 225.219 125.4C225.219 127.272 226.035 129.288 228.627 129.288C229.923 129.288 231.459 128.52 232.443 127.632C234.003 126.216 235.179 123.624 235.179 120.624C235.179 118.584 234.507 116.784 233.523 115.392C232.635 114.096 231.627 113.16 229.971 112.632C229.011 112.32 228.411 112.08 228.051 111.888C227.835 111.792 227.883 113.064 228.147 113.64C228.387 114.144 228.867 114.576 229.419 114.768C230.259 115.08 230.907 115.248 231.747 115.536C232.683 115.872 233.115 116.376 233.259 117.048C233.379 117.528 233.379 118.056 233.259 118.584C232.755 118.248 232.179 118.152 231.651 118.152ZM231.027 119.16C231.363 119.16 231.819 119.232 232.227 119.568C232.467 119.76 232.635 120.096 232.611 120.744C232.395 125.328 231.051 127.584 230.187 128.016C229.971 128.136 229.731 128.208 229.443 128.208C228.531 128.208 227.907 127.08 227.931 125.376C227.931 121.56 229.491 119.736 230.163 119.4C230.499 119.232 230.739 119.16 231.027 119.16ZM244.479 125.76C243.327 126.864 241.983 127.56 241.023 127.56C239.703 127.56 239.271 126.384 239.271 125.136C239.271 124.944 239.271 124.728 239.295 124.44C241.671 123.816 245.535 122.592 245.535 120.168C245.535 119.088 244.719 118.152 243.183 118.152C241.983 118.152 240.471 118.848 239.487 119.616C237.663 121.032 236.655 123.48 236.655 125.712C236.655 128.568 238.191 129.288 239.487 129.288C240.975 129.288 242.799 128.64 244.935 126.384L244.479 125.76ZM242.199 119.208C242.631 119.208 243.207 119.592 243.207 120.504C243.207 121.728 242.271 122.76 239.391 123.6C239.751 121.08 240.783 119.832 241.359 119.472C241.599 119.304 241.935 119.208 242.199 119.208ZM247.188 129.288L249.564 128.64C249.756 127.632 250.284 125.376 250.62 123.936H252.564C252.468 124.416 252.444 124.872 252.444 125.424C252.444 127.224 253.14 129.288 255.876 129.288C257.22 129.288 258.612 128.64 259.62 127.752C261.324 126.336 262.164 124.008 262.164 121.992C262.164 119.616 260.94 118.152 258.78 118.152C257.868 118.152 256.956 118.464 256.02 118.968C254.652 119.688 253.404 121.056 252.828 122.904H250.836C251.028 122.136 251.196 121.32 251.388 120.504C251.724 118.944 251.556 118.152 250.884 118.152C250.044 118.152 248.292 119.16 247.02 120.336L247.332 121.008C247.86 120.6 248.604 120.12 248.82 120.12C248.988 120.12 249.012 120.384 248.82 121.248C248.196 123.936 247.644 126.528 246.972 129.168L247.188 129.288ZM258.06 119.208C258.876 119.208 259.428 119.976 259.452 121.752C259.452 125.208 258.228 127.632 257.244 128.064C257.004 128.184 256.884 128.232 256.596 128.232C255.636 128.232 255.156 127.2 255.156 125.592C255.156 121.944 256.524 119.784 257.388 119.352C257.604 119.256 257.82 119.208 258.06 119.208ZM280.205 126.048C279.605 126.648 278.813 127.152 278.597 127.152C278.429 127.152 278.405 126.936 278.549 126.144C279.125 123.216 279.725 120.624 280.349 118.152H280.061L277.757 118.8C277.445 120.288 277.109 121.8 276.773 123.192C276.125 124.392 273.869 127.296 272.693 127.296C272.333 127.296 272.213 126.888 272.477 125.76C272.885 124.032 273.293 122.208 273.677 120.48C274.085 118.704 273.917 118.152 273.269 118.152C272.429 118.152 270.821 119.112 269.333 120.552L269.621 121.224C270.293 120.696 270.965 120.168 271.157 120.168C271.349 120.168 271.349 120.456 271.181 121.152C270.797 122.784 270.413 124.368 270.053 125.952C269.381 128.832 270.245 129.288 270.941 129.288C271.493 129.288 272.141 129.096 272.717 128.712C273.581 128.16 274.997 126.984 276.413 125.088H276.461C276.341 125.664 276.221 126.192 276.101 126.792C275.693 128.568 275.957 129.288 276.653 129.288C277.469 129.288 279.005 128.448 280.565 126.696L280.205 126.048ZM298.509 126.336C297.837 126.912 297.141 127.344 296.925 127.344C296.757 127.344 296.709 127.08 296.877 126.312C297.309 124.032 298.149 120 298.749 118.152H298.485L296.085 118.8C295.797 119.952 295.485 121.56 295.173 122.88H291.477L291.981 120.528C292.317 118.992 292.245 118.152 291.549 118.152C290.613 118.152 288.765 119.232 287.541 120.504L287.853 121.176C288.357 120.696 289.197 120.168 289.461 120.168C289.605 120.168 289.629 120.432 289.461 121.224C288.861 123.864 288.309 126.36 287.613 129.096L287.757 129.288C288.573 129.072 289.389 128.856 290.205 128.688C290.469 127.392 290.925 125.424 291.261 123.912H294.933C294.717 124.944 294.477 126.12 294.285 127.128C294.021 128.52 294.261 129.288 294.933 129.288C295.677 129.288 297.453 128.496 298.773 126.984L298.509 126.336ZM307.994 125.76C306.842 126.864 305.498 127.56 304.538 127.56C303.218 127.56 302.786 126.384 302.786 125.136C302.786 124.944 302.786 124.728 302.81 124.44C305.186 123.816 309.05 122.592 309.05 120.168C309.05 119.088 308.234 118.152 306.698 118.152C305.498 118.152 303.986 118.848 303.002 119.616C301.178 121.032 300.17 123.48 300.17 125.712C300.17 128.568 301.706 129.288 303.002 129.288C304.49 129.288 306.314 128.64 308.45 126.384L307.994 125.76ZM305.714 119.208C306.146 119.208 306.722 119.592 306.722 120.504C306.722 121.728 305.786 122.76 302.906 123.6C303.266 121.08 304.298 119.832 304.874 119.472C305.114 119.304 305.45 119.208 305.714 119.208ZM320.733 126.672C320.613 124.872 320.325 122.688 320.013 120.864C319.701 118.992 319.269 118.128 318.549 118.128C317.589 118.128 316.221 119.472 315.357 120.864L315.813 121.464C316.485 120.624 316.821 120.264 317.061 120.264C317.277 120.264 317.421 120.72 317.661 121.608C317.973 122.736 318.693 127.2 318.693 129.48C317.901 130.68 317.205 131.352 316.437 131.904C315.645 132.528 314.829 132.72 313.989 132.744C313.629 132.744 313.341 133.008 313.341 133.536C313.341 134.304 313.941 134.976 314.517 134.976C315.213 134.976 315.981 134.376 317.133 133.032C318.597 131.352 319.461 130.2 320.565 128.592C321.861 126.696 323.445 124.248 324.573 122.232C325.197 121.128 325.485 120.288 325.461 119.592C325.437 118.608 324.861 118.128 324.309 118.128C323.565 118.128 322.941 118.872 323.085 119.496C323.181 119.784 323.349 120.192 323.349 120.768C323.349 122.592 321.741 125.208 320.781 126.696L320.733 126.672ZM332.924 118.152C332.252 118.152 331.004 118.512 329.996 119.064C328.292 120 326.492 122.208 326.492 125.4C326.492 127.272 327.308 129.288 329.9 129.288C331.196 129.288 332.732 128.52 333.716 127.632C335.276 126.216 336.452 123.624 336.452 120.624C336.452 118.584 335.78 116.784 334.796 115.392C333.908 114.096 332.9 113.16 331.244 112.632C330.284 112.32 329.684 112.08 329.324 111.888C329.108 111.792 329.156 113.064 329.42 113.64C329.66 114.144 330.14 114.576 330.692 114.768C331.532 115.08 332.18 115.248 333.02 115.536C333.956 115.872 334.388 116.376 334.532 117.048C334.652 117.528 334.652 118.056 334.532 118.584C334.028 118.248 333.452 118.152 332.924 118.152ZM332.3 119.16C332.636 119.16 333.092 119.232 333.5 119.568C333.74 119.76 333.908 120.096 333.884 120.744C333.668 125.328 332.324 127.584 331.46 128.016C331.244 128.136 331.004 128.208 330.716 128.208C329.804 128.208 329.18 127.08 329.204 125.376C329.204 121.56 330.764 119.736 331.436 119.4C331.772 119.232 332.012 119.16 332.3 119.16ZM341.456 129.288C342.896 129.288 344.384 128.64 345.416 127.752C347.144 126.288 347.984 124.032 347.984 121.944C347.984 119.616 346.784 118.152 344.552 118.152C343.616 118.152 342.56 118.488 341.6 118.992C339.728 119.976 338 122.28 338 125.424C338 127.296 338.792 129.288 341.456 129.288ZM342.368 128.256C341.456 128.256 340.712 127.32 340.712 125.496C340.712 121.656 342.224 119.64 342.968 119.304C343.184 119.208 343.448 119.16 343.664 119.16C344.576 119.16 345.248 120 345.272 121.872C345.272 125.16 344.096 127.704 343.04 128.136C342.824 128.208 342.656 128.256 342.368 128.256ZM356.945 125.928C356.369 126.504 354.977 127.56 353.873 127.56C352.889 127.56 352.289 126.792 352.289 125.064C352.289 123.336 352.697 121.68 353.249 120.648C353.657 119.832 354.137 119.352 354.737 119.352C355.385 119.352 355.985 119.784 356.609 120.696C356.777 120.96 357.017 120.984 357.257 120.816C357.929 120.432 358.217 119.904 358.193 119.472C358.193 118.728 357.281 118.152 356.153 118.152C354.881 118.152 353.177 119.016 352.145 119.928C350.465 121.392 349.577 123.696 349.577 125.712C349.577 128.04 350.633 129.288 352.409 129.288C353.897 129.288 355.769 128.352 357.353 126.576L356.945 125.928ZM364.608 126.672C364.488 124.872 364.2 122.688 363.888 120.864C363.576 118.992 363.144 118.128 362.424 118.128C361.464 118.128 360.096 119.472 359.232 120.864L359.688 121.464C360.36 120.624 360.696 120.264 360.936 120.264C361.152 120.264 361.296 120.72 361.536 121.608C361.848 122.736 362.568 127.2 362.568 129.48C361.776 130.68 361.08 131.352 360.312 131.904C359.52 132.528 358.704 132.72 357.864 132.744C357.504 132.744 357.216 133.008 357.216 133.536C357.216 134.304 357.816 134.976 358.392 134.976C359.088 134.976 359.856 134.376 361.008 133.032C362.472 131.352 363.336 130.2 364.44 128.592C365.736 126.696 367.32 124.248 368.448 122.232C369.072 121.128 369.36 120.288 369.336 119.592C369.312 118.608 368.736 118.128 368.184 118.128C367.44 118.128 366.816 118.872 366.96 119.496C367.056 119.784 367.224 120.192 367.224 120.768C367.224 122.592 365.616 125.208 364.656 126.696L364.608 126.672ZM379.891 122.832C380.227 121.272 380.515 119.712 380.899 118.152L378.427 118.56C378.163 120 377.875 121.416 377.587 122.832H375.955C376.051 122.304 376.147 121.632 376.147 121.008C376.147 119.496 375.643 118.152 374.491 118.152C373.363 118.152 371.923 119.256 370.795 120.504L371.083 121.2C371.611 120.696 372.619 119.928 373.147 119.928C373.699 119.928 373.987 120.672 373.963 122.112C373.963 123.984 373.435 125.856 372.883 126.816C372.451 127.584 372.067 127.776 371.803 127.776C371.515 127.776 371.155 127.584 370.603 126.936C370.387 126.672 370.219 126.672 370.003 126.96C369.643 127.416 369.523 127.896 369.523 128.256C369.523 128.736 369.835 129.288 370.435 129.288C370.891 129.288 371.539 129.12 372.499 128.472C373.603 127.752 375.043 126.144 375.715 123.84H377.395C377.011 125.688 376.603 127.464 376.219 129.288L378.763 128.64C379.051 127.008 379.363 125.448 379.699 123.84H381.331C381.091 124.584 380.923 125.448 380.923 126.408C380.899 127.92 381.379 129.288 382.651 129.288C383.683 129.288 385.291 128.208 386.299 126.936L385.987 126.24C385.483 126.768 384.571 127.44 384.019 127.44C383.443 127.44 383.107 126.456 383.107 125.112C383.131 122.928 383.731 121.32 384.235 120.528C384.571 119.976 384.883 119.736 385.171 119.736C385.411 119.736 385.843 119.88 386.371 120.456C386.563 120.696 386.731 120.672 386.995 120.384C387.283 120 387.403 119.472 387.403 119.112C387.403 118.632 387.091 118.152 386.563 118.152C386.059 118.152 385.459 118.368 384.811 118.824C383.635 119.64 382.387 120.936 381.643 122.832H379.891ZM399.197 126.048C398.597 126.648 397.805 127.152 397.589 127.152C397.421 127.152 397.397 126.936 397.541 126.144C398.117 123.216 398.717 120.624 399.341 118.152H399.053L396.749 118.8C396.437 120.288 396.101 121.8 395.765 123.192C395.117 124.392 392.861 127.296 391.685 127.296C391.325 127.296 391.205 126.888 391.469 125.76C391.877 124.032 392.285 122.208 392.669 120.48C393.077 118.704 392.909 118.152 392.261 118.152C391.421 118.152 389.813 119.112 388.325 120.552L388.613 121.224C389.285 120.696 389.957 120.168 390.149 120.168C390.341 120.168 390.341 120.456 390.173 121.152C389.789 122.784 389.405 124.368 389.045 125.952C388.373 128.832 389.237 129.288 389.933 129.288C390.485 129.288 391.133 129.096 391.709 128.712C392.573 128.16 393.989 126.984 395.405 125.088H395.453C395.333 125.664 395.213 126.192 395.093 126.792C394.685 128.568 394.949 129.288 395.645 129.288C396.461 129.288 397.997 128.448 399.557 126.696L399.197 126.048ZM417.828 126.168C417.276 126.696 416.532 127.2 416.316 127.2C416.172 127.2 416.1 127.032 416.244 126.432L417.324 121.728C418.092 118.488 417.228 118.152 416.628 118.152C416.148 118.152 415.692 118.296 415.068 118.656C414.18 119.16 412.692 120.312 411.084 122.448H411.036L411.204 121.704C411.876 118.584 411.108 118.152 410.436 118.152C409.932 118.152 409.428 118.32 408.828 118.68C408.012 119.16 406.476 120.36 404.868 122.544H404.82L405.18 121.008C405.66 119.04 405.564 118.152 404.82 118.152C404.004 118.152 402.468 119.064 400.98 120.6L401.292 121.248C401.796 120.792 402.588 120.216 402.852 120.216C402.996 120.24 403.044 120.432 402.876 121.128C402.276 123.864 401.676 126.432 400.956 129.072L401.148 129.288C401.82 129.072 402.708 128.88 403.524 128.808C403.836 127.272 404.22 125.544 404.58 124.368C405.3 122.928 407.772 120.048 408.708 120.048C409.092 120.048 409.116 120.6 408.804 122.064C408.3 124.32 407.724 126.672 407.148 129.072L407.316 129.288C407.964 129.072 408.876 128.88 409.74 128.808C410.028 127.296 410.388 125.664 410.7 124.344C411.54 122.808 413.964 120.048 414.852 120.048C415.14 120.048 415.236 120.48 414.996 121.464L413.724 126.864C413.292 128.712 413.628 129.288 414.324 129.288C415.044 129.288 416.7 128.472 418.164 126.816L417.828 126.168ZM423.449 123.216L424.121 120.48C424.505 118.992 424.433 118.152 423.713 118.152C422.633 118.152 420.833 119.376 419.753 120.432L420.065 121.128C420.617 120.696 421.385 120.216 421.625 120.216C421.769 120.216 421.793 120.48 421.625 121.152L420.473 125.856C420.233 126.888 420.233 127.536 420.473 128.088C420.833 128.88 421.649 129.288 422.801 129.288C423.929 129.288 425.321 128.928 426.617 128.088C428.297 127.032 429.617 125.304 429.593 123.216C429.593 121.92 428.921 120.984 427.697 120.984C426.473 120.984 424.865 121.896 423.497 123.216H423.449ZM426.137 122.52C426.593 122.52 426.929 122.928 426.929 123.792C426.905 125.64 425.921 127.32 425.105 127.872C424.721 128.112 424.337 128.256 423.929 128.256C423.161 128.256 422.585 127.512 422.849 126.12C423.065 125.04 423.209 124.608 423.857 123.864C424.841 122.856 425.681 122.52 426.137 122.52ZM438.719 125.928C438.143 126.504 436.751 127.56 435.647 127.56C434.663 127.56 434.063 126.792 434.063 125.064C434.063 123.336 434.471 121.68 435.023 120.648C435.431 119.832 435.911 119.352 436.511 119.352C437.159 119.352 437.759 119.784 438.383 120.696C438.551 120.96 438.791 120.984 439.031 120.816C439.703 120.432 439.991 119.904 439.967 119.472C439.967 118.728 439.055 118.152 437.927 118.152C436.655 118.152 434.951 119.016 433.919 119.928C432.239 121.392 431.351 123.696 431.351 125.712C431.351 128.04 432.407 129.288 434.183 129.288C435.671 129.288 437.543 128.352 439.127 126.576L438.719 125.928ZM452.548 118.392H447.124C444.58 118.392 442.372 119.16 442.372 121.464C442.372 122.664 443.164 123.672 444.964 123.984C443.164 124.416 442.54 125.256 441.868 126.456C441.436 127.2 441.124 127.656 440.764 127.944C440.356 128.28 439.923 128.352 439.491 128.448L439.371 129.144H440.308C442.444 129.144 443.404 128.64 444.004 127.632C444.58 126.648 445.036 125.784 445.588 125.016C445.972 124.44 446.548 124.224 446.98 124.224H447.412L446.836 127.08C446.523 128.496 446.668 129.288 447.508 129.288C448.42 129.288 450.316 128.136 451.324 127.008L451.012 126.36C450.412 126.84 449.62 127.296 449.404 127.296C449.236 127.272 449.188 127.056 449.38 126.264L450.388 121.104C450.724 119.4 450.94 119.304 452.38 119.112L452.548 118.392ZM447.58 123.36H447.076C445.876 123.36 444.916 122.712 444.916 121.488C444.916 120.144 445.9 119.232 447.292 119.232H447.316C448.276 119.232 448.372 119.472 448.228 120.144L447.58 123.36ZM104.264 149.544L104 149.376C103.232 149.736 102.104 150.456 101.576 151.008L101.312 152.064C100.544 152.376 99.728 152.736 98.984 153.24L99.2 153.936C99.728 153.648 100.352 153.36 101.096 153.12C100.28 157.056 99.44 161.064 98.576 165.168C98.264 166.608 97.952 166.872 96.536 167.16L96.368 167.88L102.56 167.592L102.68 166.848L102.128 166.8C100.952 166.656 100.784 166.44 101.024 165.192L101.624 162.072C102.104 162.24 102.512 162.288 102.92 162.288C104.552 161.904 106.352 160.824 107.528 159.504C108.872 158.016 109.544 156.144 109.544 154.656C109.544 152.4 108.536 151.152 106.016 151.152C105.296 151.152 104.576 151.224 103.832 151.44L104.264 149.544ZM103.592 152.496C103.952 152.4 104.336 152.328 104.72 152.328C105.848 152.328 106.832 152.832 106.832 154.848C106.832 157.872 104.768 161.184 103.304 161.184C102.824 161.208 102.248 160.752 102.008 160.416L103.592 152.496ZM118.83 158.76C117.678 159.864 116.334 160.56 115.374 160.56C114.054 160.56 113.622 159.384 113.622 158.136C113.622 157.944 113.622 157.728 113.646 157.44C116.022 156.816 119.886 155.592 119.886 153.168C119.886 152.088 119.07 151.152 117.534 151.152C116.334 151.152 114.822 151.848 113.838 152.616C112.014 154.032 111.006 156.48 111.006 158.712C111.006 161.568 112.542 162.288 113.838 162.288C115.326 162.288 117.15 161.64 119.286 159.384L118.83 158.76ZM116.55 152.208C116.982 152.208 117.558 152.592 117.558 153.504C117.558 154.728 116.622 155.76 113.742 156.6C114.102 154.08 115.134 152.832 115.71 152.472C115.95 152.304 116.286 152.208 116.55 152.208ZM131.409 158.952C130.809 159.552 129.969 160.152 129.753 160.152C129.609 160.152 129.561 159.936 129.705 159.168C130.209 156.264 130.833 153.432 131.313 151.584L131.193 151.488C130.833 151.488 130.449 151.416 129.969 151.32C129.441 151.2 128.937 151.152 128.457 151.152C126.633 151.152 124.689 152.184 123.537 153.168C121.905 154.608 120.801 157.104 120.801 159.432C120.801 161.328 121.569 162.288 122.385 162.288C123.177 162.288 124.113 161.736 124.857 161.112C125.649 160.44 126.609 159.504 127.473 158.28H127.521L127.185 159.912C126.777 161.952 127.257 162.288 127.785 162.288C128.529 162.288 130.257 161.4 131.769 159.576L131.409 158.952ZM124.089 160.344C123.753 160.344 123.537 159.912 123.537 158.904C123.537 156.744 124.377 153.816 125.937 152.688C126.273 152.424 126.705 152.28 127.209 152.28C127.737 152.28 128.361 152.448 128.673 152.616C128.553 153.36 128.145 155.28 127.833 156.384C127.281 157.536 124.953 160.344 124.089 160.344ZM144.085 151.152C143.677 151.248 142.789 151.416 141.685 151.56C139.789 151.776 137.029 151.92 135.421 151.92C135.157 151.944 134.893 152.88 134.701 153.24C135.493 153.192 136.333 153.12 137.221 153.048C136.909 154.728 135.925 157.416 134.797 159.024C134.029 160.104 133.237 160.872 132.373 161.424L132.325 161.664C132.421 161.928 132.997 162.336 133.525 162.336C133.861 162.336 134.197 162.216 134.773 161.592C136.549 159.504 137.725 155.496 138.325 152.976C139.429 152.856 140.269 152.76 140.893 152.664C140.245 155.232 139.597 157.728 139.189 159.888C138.805 161.784 139.213 162.312 139.837 162.312C140.533 162.312 142.381 161.424 143.749 159.984L143.437 159.312C142.837 159.84 142.069 160.296 141.901 160.296C141.709 160.296 141.661 160.104 141.757 159.36C142.045 157.488 142.477 155.64 142.885 153.792C143.197 152.448 143.437 152.232 143.893 151.992L144.205 151.848L144.085 151.152ZM156.056 159.048C155.456 159.648 154.664 160.152 154.448 160.152C154.28 160.152 154.256 159.936 154.4 159.144C154.976 156.216 155.576 153.624 156.2 151.152H155.912L153.608 151.8C153.296 153.288 152.96 154.8 152.624 156.192C151.976 157.392 149.72 160.296 148.544 160.296C148.184 160.296 148.064 159.888 148.328 158.76C148.736 157.032 149.144 155.208 149.528 153.48C149.936 151.704 149.768 151.152 149.12 151.152C148.28 151.152 146.672 152.112 145.184 153.552L145.472 154.224C146.144 153.696 146.816 153.168 147.008 153.168C147.2 153.168 147.2 153.456 147.032 154.152C146.648 155.784 146.264 157.368 145.904 158.952C145.232 161.832 146.096 162.288 146.792 162.288C147.344 162.288 147.992 162.096 148.568 161.712C149.432 161.16 150.848 159.984 152.264 158.088H152.312C152.192 158.664 152.072 159.192 151.952 159.792C151.544 161.568 151.808 162.288 152.504 162.288C153.32 162.288 154.856 161.448 156.416 159.696L156.056 159.048ZM158.835 153.72L159.339 154.344C159.987 153.6 160.899 152.736 162.051 152.736C162.963 152.736 163.491 153.192 163.491 154.008C163.491 154.848 162.483 155.76 160.179 156.192L160.227 156.984C160.467 156.912 160.803 156.864 161.163 156.864C162.315 156.864 163.203 157.512 163.203 158.976C163.203 160.512 162.315 161.304 161.283 161.328C160.275 161.352 159.315 160.752 158.643 159.36C158.499 159.072 158.355 158.976 158.139 159.12C157.827 159.336 157.491 159.696 157.371 160.08C157.251 160.416 157.299 160.752 157.563 161.16C158.091 161.88 159.171 162.288 160.491 162.288C162.651 162.288 165.867 160.92 165.867 158.328C165.891 156.768 164.643 156.144 163.491 155.856L163.515 155.784C163.995 155.568 164.451 155.376 164.835 155.16C165.651 154.728 166.083 154.128 166.083 153.456C166.083 151.872 164.547 151.152 163.299 151.152C161.811 151.152 160.755 151.656 159.939 152.52L158.835 153.72ZM171.323 162.288C172.763 162.288 174.251 161.64 175.283 160.752C177.011 159.288 177.851 157.032 177.851 154.944C177.851 152.616 176.651 151.152 174.419 151.152C173.483 151.152 172.427 151.488 171.467 151.992C169.595 152.976 167.867 155.28 167.867 158.424C167.867 160.296 168.659 162.288 171.323 162.288ZM172.235 161.256C171.323 161.256 170.579 160.32 170.579 158.496C170.579 154.656 172.091 152.64 172.835 152.304C173.051 152.208 173.315 152.16 173.531 152.16C174.443 152.16 175.115 153 175.139 154.872C175.139 158.16 173.963 160.704 172.907 161.136C172.691 161.208 172.523 161.256 172.235 161.256ZM186.004 155.76C186.772 155.472 187.252 155.28 187.852 154.92C188.548 154.488 189.028 153.912 189.028 153.168C189.004 151.944 188.02 151.152 186.364 151.152C185.5 151.152 184.66 151.344 183.58 151.8C182.068 152.448 180.82 153.696 180.124 155.976C179.884 156.696 179.74 157.248 179.596 157.968C178.948 161.208 180.364 162.288 182.668 162.288C184.036 162.288 185.284 161.88 186.46 161.28C187.876 160.536 188.86 159.456 188.86 158.16C188.86 156.528 187.372 155.904 186.004 155.76ZM185.404 152.136C185.86 152.136 186.436 152.496 186.436 153.456C186.436 154.296 185.812 155.088 184.708 155.568C183.94 155.904 183.076 156.144 182.524 156.24C182.86 154.608 183.412 153.048 184.42 152.424C184.756 152.208 185.02 152.136 185.404 152.136ZM184.3 156.696C185.26 156.696 186.052 157.296 186.052 158.424C186.052 160.008 184.996 161.28 183.532 161.28C182.188 161.28 181.852 160.008 182.092 158.496C182.164 157.992 182.212 157.656 182.332 157.2C182.74 156.984 183.628 156.696 184.3 156.696ZM201.511 158.952C200.911 159.552 200.071 160.152 199.855 160.152C199.711 160.152 199.663 159.936 199.807 159.168C200.311 156.264 200.935 153.432 201.415 151.584L201.295 151.488C200.935 151.488 200.551 151.416 200.071 151.32C199.543 151.2 199.039 151.152 198.559 151.152C196.735 151.152 194.791 152.184 193.639 153.168C192.007 154.608 190.903 157.104 190.903 159.432C190.903 161.328 191.671 162.288 192.487 162.288C193.279 162.288 194.215 161.736 194.959 161.112C195.751 160.44 196.711 159.504 197.575 158.28H197.623L197.287 159.912C196.879 161.952 197.359 162.288 197.887 162.288C198.631 162.288 200.359 161.4 201.871 159.576L201.511 158.952ZM194.191 160.344C193.855 160.344 193.639 159.912 193.639 158.904C193.639 156.744 194.479 153.816 196.039 152.688C196.375 152.424 196.807 152.28 197.311 152.28C197.839 152.28 198.463 152.448 198.775 152.616C198.655 153.36 198.247 155.28 197.935 156.384C197.383 157.536 195.055 160.344 194.191 160.344ZM220.203 159.168C219.651 159.696 218.907 160.2 218.691 160.2C218.547 160.2 218.475 160.032 218.619 159.432L219.699 154.728C220.467 151.488 219.603 151.152 219.003 151.152C218.523 151.152 218.067 151.296 217.443 151.656C216.555 152.16 215.067 153.312 213.459 155.448H213.411L213.579 154.704C214.251 151.584 213.483 151.152 212.811 151.152C212.307 151.152 211.803 151.32 211.203 151.68C210.387 152.16 208.851 153.36 207.243 155.544H207.195L207.555 154.008C208.035 152.04 207.939 151.152 207.195 151.152C206.379 151.152 204.843 152.064 203.355 153.6L203.667 154.248C204.171 153.792 204.963 153.216 205.227 153.216C205.371 153.24 205.419 153.432 205.251 154.128C204.651 156.864 204.051 159.432 203.331 162.072L203.523 162.288C204.195 162.072 205.083 161.88 205.899 161.808C206.211 160.272 206.595 158.544 206.955 157.368C207.675 155.928 210.147 153.048 211.083 153.048C211.467 153.048 211.491 153.6 211.179 155.064C210.675 157.32 210.099 159.672 209.523 162.072L209.691 162.288C210.339 162.072 211.251 161.88 212.115 161.808C212.403 160.296 212.763 158.664 213.075 157.344C213.915 155.808 216.339 153.048 217.227 153.048C217.515 153.048 217.611 153.48 217.371 154.464L216.099 159.864C215.667 161.712 216.003 162.288 216.699 162.288C217.419 162.288 219.075 161.472 220.539 159.816L220.203 159.168ZM225.824 156.216L226.496 153.48C226.88 151.992 226.808 151.152 226.088 151.152C225.008 151.152 223.208 152.376 222.128 153.432L222.44 154.128C222.992 153.696 223.76 153.216 224 153.216C224.144 153.216 224.168 153.48 224 154.152L222.848 158.856C222.608 159.888 222.608 160.536 222.848 161.088C223.208 161.88 224.024 162.288 225.176 162.288C226.304 162.288 227.696 161.928 228.992 161.088C230.672 160.032 231.992 158.304 231.968 156.216C231.968 154.92 231.296 153.984 230.072 153.984C228.848 153.984 227.24 154.896 225.872 156.216H225.824ZM228.512 155.52C228.968 155.52 229.304 155.928 229.304 156.792C229.28 158.64 228.296 160.32 227.48 160.872C227.096 161.112 226.712 161.256 226.304 161.256C225.536 161.256 224.96 160.512 225.224 159.12C225.44 158.04 225.584 157.608 226.232 156.864C227.216 155.856 228.056 155.52 228.512 155.52ZM246.869 158.76C245.717 159.864 244.373 160.56 243.413 160.56C242.093 160.56 241.661 159.384 241.661 158.136C241.661 157.944 241.661 157.728 241.685 157.44C244.061 156.816 247.925 155.592 247.925 153.168C247.925 152.088 247.109 151.152 245.573 151.152C244.373 151.152 242.861 151.848 241.877 152.616C240.053 154.032 239.045 156.48 239.045 158.712C239.045 161.568 240.581 162.288 241.877 162.288C243.365 162.288 245.189 161.64 247.325 159.384L246.869 158.76ZM244.589 152.208C245.021 152.208 245.597 152.592 245.597 153.504C245.597 154.728 244.661 155.76 241.781 156.6C242.141 154.08 243.173 152.832 243.749 152.472C243.989 152.304 244.325 152.208 244.589 152.208ZM256.76 158.76C255.608 159.864 254.264 160.56 253.304 160.56C251.984 160.56 251.552 159.384 251.552 158.136C251.552 157.944 251.552 157.728 251.576 157.44C253.952 156.816 257.816 155.592 257.816 153.168C257.816 152.088 257 151.152 255.464 151.152C254.264 151.152 252.752 151.848 251.768 152.616C249.944 154.032 248.936 156.48 248.936 158.712C248.936 161.568 250.472 162.288 251.768 162.288C253.256 162.288 255.08 161.64 257.216 159.384L256.76 158.76ZM254.48 152.208C254.912 152.208 255.488 152.592 255.488 153.504C255.488 154.728 254.552 155.76 251.672 156.6C252.032 154.08 253.064 152.832 253.64 152.472C253.88 152.304 254.216 152.208 254.48 152.208ZM260.315 162.288C261.155 162.288 261.995 161.64 261.995 160.512C261.995 159.6 261.395 158.952 260.555 158.952C259.571 158.952 258.851 159.72 258.851 160.752C258.851 161.64 259.451 162.288 260.315 162.288Z" fill="#232E3C"/>
</g>
</g>
<defs>
<clipPath id="clip0">
<rect width="1440" height="12315" fill="white" transform="translate(-147 -5074)"/>
</clipPath>
<clipPath id="clip1">
<rect width="746" height="250" fill="white" transform="translate(9 -14)"/>
</clipPath>
</defs>
</svg>
