<svg width="33" height="27" viewBox="0 0 33 27" fill="none" xmlns="http://www.w3.org/2000/svg">
<path d="M32.6665 3.6259C31.461 4.17384 30.2555 4.50261 28.8309 4.72179C30.146 3.84507 31.2418 2.63959 31.7898 1.10535C30.4747 1.87247 29.0501 2.42042 27.6254 2.74918C26.4199 1.43412 24.6665 0.666992 22.8035 0.666992C19.1871 0.666992 16.1186 3.6259 16.1186 7.35192C16.1186 7.89987 16.2281 8.33823 16.3377 8.88617C10.8583 8.66699 5.92678 5.92727 2.63911 1.98206C2.09116 2.74918 1.76239 3.84507 1.76239 5.05055C1.76239 7.35192 2.96787 9.43412 4.7213 10.53C3.62541 10.53 2.63911 10.2012 1.76239 9.65329V9.76288C1.76239 12.941 4.06376 15.6807 7.13226 16.2286C6.58431 16.3382 6.03637 16.4478 5.37883 16.4478C4.94048 16.4478 4.50212 16.4478 4.17335 16.3382C5.05007 18.9684 7.46102 20.941 10.4199 20.941C8.11856 22.6944 5.26924 23.7903 2.20075 23.7903C1.6528 23.7903 1.10486 23.7903 0.666504 23.6807C3.29664 25.7629 6.80349 26.8588 10.5295 26.8588C22.6939 26.8588 29.3788 16.7766 29.3788 8.00946V7.13275C30.6939 6.14644 31.7898 5.05055 32.6665 3.6259Z" fill="#E9E9E9"/>
</svg>
