<svg width="32" height="20" viewBox="0 0 32 20" fill="none" xmlns="http://www.w3.org/2000/svg">
<path fill-rule="evenodd" clip-rule="evenodd" d="M15.7046 18.9046H17.6448C17.6448 18.9046 18.2268 18.8076 18.5178 18.5165C18.8089 18.2255 18.8089 17.6435 18.8089 17.6435C18.8089 17.6435 18.8089 15.1212 19.973 14.7332C21.1371 14.3452 22.6892 17.2554 24.2413 18.3225C25.4054 19.1956 26.2785 19.0016 26.2785 19.0016L30.5469 18.9046C30.5469 18.9046 32.7781 18.8076 31.711 16.9644C31.614 16.8674 31.1289 15.7033 28.5097 13.2781C25.7935 10.7559 26.1815 11.2409 29.3828 6.87553C31.3229 4.2563 32.099 2.70417 31.905 1.9281C31.711 1.24904 30.2558 1.44306 30.2558 1.44306H25.4054C25.4054 1.44306 25.0174 1.34605 24.8234 1.54007C24.5324 1.73408 24.4353 2.02511 24.4353 2.02511C24.4353 2.02511 23.6593 4.06229 22.6892 5.80844C20.555 9.39775 19.6819 9.59177 19.3909 9.39775C18.6148 8.91271 18.8089 7.26356 18.8089 6.19647C18.8089 2.70417 19.3909 1.24904 17.7418 0.861008C17.2567 0.764 16.8687 0.666992 15.5106 0.666992C13.7644 0.666992 12.3093 0.666992 11.5332 1.05503C10.9512 1.34605 10.5631 1.9281 10.8542 1.9281C11.1452 1.9281 11.9213 2.12212 12.3093 2.60716C12.6973 3.48024 12.6973 4.93536 12.6973 4.93536C12.6973 4.93536 12.9884 9.10672 12.0183 9.59177C11.3392 9.9798 10.4661 9.20373 8.52596 5.90545C7.55588 4.2563 6.77981 2.31613 6.77981 2.31613C6.77981 2.31613 6.6828 1.9281 6.39178 1.73409C6.10075 1.54007 5.61571 1.44306 5.61571 1.44306H1.05631C1.05631 1.44306 0.377255 1.44306 0.0862297 1.73409C-0.107787 2.02511 0.0862297 2.51015 0.0862297 2.51015C0.0862297 2.51015 3.67554 10.8529 7.7499 15.1212C11.5332 19.1956 15.7046 18.9046 15.7046 18.9046Z" fill="#E9E9E9"/>
</svg>
