<svg width="33" height="23" viewBox="0 0 33 23" fill="none" xmlns="http://www.w3.org/2000/svg">
<path d="M32.3465 5.23967C32.3465 5.23967 32.0265 2.99967 31.0665 2.03967C29.8932 0.759675 28.5065 0.759675 27.8665 0.653008C23.3865 0.333008 16.6665 0.333008 16.6665 0.333008C16.6665 0.333008 9.9465 0.333008 5.4665 0.653008C4.8265 0.759675 3.43984 0.759675 2.2665 2.03967C1.3065 2.99967 0.986504 5.23967 0.986504 5.23967C0.986504 5.23967 0.666504 7.79967 0.666504 10.3597V12.7063C0.666504 15.2663 0.986504 17.933 0.986504 17.933C0.986504 17.933 1.3065 20.173 2.2665 21.133C3.43984 22.413 5.03984 22.413 5.7865 22.5197C8.3465 22.6263 16.6665 22.733 16.6665 22.733C16.6665 22.733 23.3865 22.733 27.8665 22.413C28.5065 22.3063 29.8932 22.3063 31.0665 21.0263C32.0265 20.0663 32.3465 17.8263 32.3465 17.8263C32.3465 17.8263 32.6665 15.2663 32.6665 12.7063V10.3597C32.6665 7.79967 32.3465 5.23967 32.3465 5.23967ZM13.3598 15.693V6.73301L21.9998 11.213L13.3598 15.693Z" fill="#E9E9E9"/>
</svg>
